<svg xmlns="http://www.w3.org/2000/svg" xmlns:xlink="http://www.w3.org/1999/xlink" id="Layer_1" width="800" height="800" x="0" y="0" enable-background="new 0 0 800 800" version="1.0" viewBox="183.431 191.994 421.462 378.329" xml:space="preserve"><g><path fill="#BCC2C6" d="M197.518,239.515h393.29c3.881,0,7.401,1.586,9.946,4.13c2.554,2.554,4.139,6.075,4.139,9.956v302.637 c0,3.88-1.585,7.401-4.139,9.947c-2.545,2.552-6.065,4.138-9.946,4.138h-393.29c-3.872,0-7.401-1.586-9.947-4.138 c-2.554-2.546-4.139-6.067-4.139-9.947V253.601c0-3.88,1.585-7.402,4.139-9.956C190.116,241.101,193.646,239.515,197.518,239.515"/><path fill="#FFF" fill-rule="evenodd" d="M197.518,245.397c-2.178,0-4.247,0.868-5.792,2.412 c-1.535,1.544-2.412,3.613-2.412,5.792v302.637c0,2.178,0.877,4.248,2.412,5.79c1.545,1.535,3.614,2.412,5.792,2.412h393.29 c2.177,0,4.247-0.877,5.782-2.412c1.544-1.542,2.412-3.604,2.412-5.79V253.601c0-2.187-0.868-4.248-2.412-5.792 c-1.535-1.543-3.613-2.412-5.782-2.412H197.518z" clip-rule="evenodd"/><polygon fill="#34495E" fill-rule="evenodd" points="480.854 422.351 480.854 392.677 516.618 392.677 516.618 457.005 271.708 457.005 271.708 408.757 301.59 408.757 301.59 392.068 331.462 392.068 331.462 361.77 367.227 361.77 367.227 414.214 391.217 414.214 391.217 338.906 426.98 338.906 426.98 371.658 456.861 371.658 456.861 422.351" clip-rule="evenodd"/><rect width="23.991" height="36.482" x="277.599" y="414.64" fill="#22A6EF" fill-rule="evenodd" clip-rule="evenodd"/><rect width="23.99" height="53.163" x="307.472" y="397.959" fill="#F65C4C" fill-rule="evenodd" clip-rule="evenodd"/><rect width="23.982" height="83.461" x="337.354" y="367.661" fill="#F29B12" fill-rule="evenodd" clip-rule="evenodd"/><rect width="23.99" height="31.017" x="367.227" y="420.105" fill="#27CABF" fill-rule="evenodd" clip-rule="evenodd"/><rect width="23.991" height="106.326" x="397.107" y="344.796" fill="#22A6EF" fill-rule="evenodd" clip-rule="evenodd"/><rect width="23.991" height="73.573" x="426.98" y="377.549" fill="#F65C4C" fill-rule="evenodd" clip-rule="evenodd"/><rect width="23.992" height="22.89" x="456.861" y="428.232" fill="#F29B12" fill-rule="evenodd" clip-rule="evenodd"/><rect width="23.99" height="52.554" x="486.735" y="398.568" fill="#27CABF" fill-rule="evenodd" clip-rule="evenodd"/><path fill="#BCC2C6" fill-rule="evenodd" d="M311.277,286.485h165.771c2.161,0,3.93,1.77,3.93,3.939 c0,2.161-1.769,3.93-3.93,3.93H311.277c-2.161,0-3.931-1.769-3.931-3.93C307.347,288.255,309.116,286.485,311.277,286.485" clip-rule="evenodd"/><path fill="#BCC2C6" fill-rule="evenodd" d="M249.285,511.761h289.752c2.162,0,3.932,1.77,3.932,3.938l0,0 c0,2.17-1.77,3.932-3.932,3.932H249.285c-2.161,0-3.929-1.762-3.929-3.932l0,0C245.356,513.53,247.124,511.761,249.285,511.761" clip-rule="evenodd"/><path fill="#BCC2C6" fill-rule="evenodd" d="M249.285,531.546h289.752c2.162,0,3.932,1.77,3.932,3.93v0.008 c0,2.161-1.77,3.932-3.932,3.932H249.285c-2.161,0-3.929-1.771-3.929-3.932v-0.008 C245.356,533.315,247.124,531.546,249.285,531.546" clip-rule="evenodd"/><path fill="#BCC2C6" fill-rule="evenodd" d="M249.285,491.984h140.938c2.169,0,3.938,1.77,3.938,3.931l0,0 c0,2.169-1.77,3.938-3.938,3.938H249.285c-2.161,0-3.929-1.77-3.929-3.938l0,0C245.356,493.754,247.124,491.984,249.285,491.984" clip-rule="evenodd"/><path fill="#34495E" fill-rule="evenodd" d="M244.137,457.005h300.042c1.619,0,2.946-1.319,2.946-2.938 c0-1.627-1.327-2.945-2.946-2.945H244.137c-1.619,0-2.936,1.318-2.936,2.945C241.201,455.686,242.518,457.005,244.137,457.005" clip-rule="evenodd"/></g></svg>