<svg xmlns="http://www.w3.org/2000/svg" xmlns:xlink="http://www.w3.org/1999/xlink" id="Layer_1" width="800" height="800" x="0" y="0" enable-background="new 0 0 800 800" version="1.0" viewBox="192.791 200.414 421.473 378.354" xml:space="preserve"><g><path fill="#BCC2C6" d="M206.877,247.947h393.309c3.882,0,7.402,1.585,9.947,4.123c2.555,2.553,4.131,6.075,4.131,9.964v302.646 c0,3.873-1.576,7.395-4.131,9.948c-2.545,2.553-6.065,4.14-9.947,4.14H206.877c-3.881,0-7.402-1.587-9.947-4.14 c-2.555-2.554-4.138-6.075-4.138-9.948V262.033c0-3.889,1.583-7.411,4.138-9.964C199.475,249.532,202.996,247.947,206.877,247.947"/><path fill="#FFF" fill-rule="evenodd" d="M206.877,253.822c-2.178,0-4.246,0.884-5.783,2.42 c-1.545,1.535-2.411,3.605-2.411,5.792v302.646c0,2.171,0.866,4.24,2.411,5.792c1.537,1.536,3.605,2.404,5.783,2.404h393.309 c2.178,0,4.249-0.868,5.784-2.404c1.544-1.552,2.411-3.604,2.411-5.792V262.033c0-2.187-0.867-4.256-2.411-5.792 c-1.535-1.553-3.606-2.42-5.784-2.42H206.877z" clip-rule="evenodd"/><path fill="#34495E" fill-rule="evenodd" d="M250.012,535.79h307.031c4.248,0,7.719-3.488,7.719-7.728v-229.43 c0-4.238-3.487-7.71-7.719-7.71H250.012c-4.221,0-7.71,3.472-7.71,7.71v229.43C242.302,532.318,245.771,535.79,250.012,535.79" clip-rule="evenodd"/><path fill="#FFF" d="M250.012,529.898h307.031c1.01,0,1.829-0.835,1.829-1.836v-229.43c0-0.984-0.835-1.818-1.829-1.818H250.012 c-0.984,0-1.82,0.818-1.82,1.818v229.43C248.191,529.081,249.012,529.898,250.012,529.898"/><path fill="#34495E" fill-rule="evenodd" d="M250.012,535.79h307.031c4.248,0,7.719-3.488,7.719-7.728V343.278 c0-4.238-3.479-7.71-7.719-7.71H250.012c-4.23,0-7.71,3.472-7.71,7.71v184.785C242.302,532.318,245.771,535.79,250.012,535.79" clip-rule="evenodd"/><path fill="#22A6EF" d="M250.012,529.898h307.031c1.01,0,1.829-0.835,1.829-1.836V343.278c0-1.001-0.835-1.818-1.829-1.818H250.012 c-0.994,0-1.82,0.817-1.82,1.818v184.785C248.191,529.081,249.012,529.898,250.012,529.898"/><path fill="#34495E" fill-rule="evenodd" d="M339.401,312.903h128.252c1.628,0,2.947,1.318,2.947,2.938 s-1.319,2.954-2.947,2.954H339.401c-1.618,0-2.946-1.335-2.946-2.954S337.783,312.903,339.401,312.903" clip-rule="evenodd"/><rect width="30.5" height="30.491" x="441.441" y="420.436" fill="#34495E" fill-rule="evenodd" clip-rule="evenodd"/><rect width="30.492" height="30.492" x="281.955" y="368.497" fill="#34495E" fill-rule="evenodd" clip-rule="evenodd"/><rect width="30.49" height="30.492" x="335.121" y="368.497" fill="#34495E" fill-rule="evenodd" clip-rule="evenodd"/><rect width="30.5" height="30.492" x="388.277" y="368.497" fill="#34495E" fill-rule="evenodd" clip-rule="evenodd"/><rect width="30.5" height="30.492" x="441.441" y="368.497" fill="#34495E" fill-rule="evenodd" clip-rule="evenodd"/><rect width="30.499" height="30.492" x="494.608" y="368.497" fill="#34495E" fill-rule="evenodd" clip-rule="evenodd"/><rect width="30.492" height="30.491" x="281.955" y="420.436" fill="#34495E" fill-rule="evenodd" clip-rule="evenodd"/><rect width="30.49" height="30.491" x="335.121" y="420.436" fill="#34495E" fill-rule="evenodd" clip-rule="evenodd"/><rect width="30.5" height="30.491" x="388.277" y="420.436" fill="#34495E" fill-rule="evenodd" clip-rule="evenodd"/><rect width="30.499" height="30.491" x="494.608" y="420.436" fill="#34495E" fill-rule="evenodd" clip-rule="evenodd"/><rect width="30.492" height="30.488" x="281.955" y="472.356" fill="#34495E" fill-rule="evenodd" clip-rule="evenodd"/><rect width="30.49" height="30.488" x="335.121" y="472.356" fill="#34495E" fill-rule="evenodd" clip-rule="evenodd"/><rect width="30.5" height="30.488" x="388.277" y="472.356" fill="#34495E" fill-rule="evenodd" clip-rule="evenodd"/><rect width="30.5" height="30.488" x="441.441" y="472.356" fill="#34495E" fill-rule="evenodd" clip-rule="evenodd"/><rect width="30.499" height="30.488" x="494.608" y="472.356" fill="#34495E" fill-rule="evenodd" clip-rule="evenodd"/><rect width="18.717" height="18.704" x="500.5" y="478.248" fill="#39D4FF" fill-rule="evenodd" clip-rule="evenodd"/><rect width="18.718" height="18.704" x="447.334" y="478.248" fill="#39D4FF" fill-rule="evenodd" clip-rule="evenodd"/><rect width="18.717" height="18.704" x="394.17" y="478.248" fill="#39D4FF" fill-rule="evenodd" clip-rule="evenodd"/><rect width="18.72" height="18.704" x="341.003" y="478.248" fill="#39D4FF" fill-rule="evenodd" clip-rule="evenodd"/><rect width="18.726" height="18.704" x="287.839" y="478.248" fill="#39D4FF" fill-rule="evenodd" clip-rule="evenodd"/><rect width="18.717" height="18.725" x="500.5" y="426.31" fill="#39D4FF" fill-rule="evenodd" clip-rule="evenodd"/><rect width="18.718" height="18.725" x="447.334" y="426.31" fill="#FFF" fill-rule="evenodd" clip-rule="evenodd"/><rect width="18.717" height="18.725" x="394.17" y="426.31" fill="#39D4FF" fill-rule="evenodd" clip-rule="evenodd"/><rect width="18.72" height="18.725" x="341.003" y="426.31" fill="#39D4FF" fill-rule="evenodd" clip-rule="evenodd"/><rect width="18.726" height="18.725" x="287.839" y="426.31" fill="#39D4FF" fill-rule="evenodd" clip-rule="evenodd"/><rect width="18.717" height="18.725" x="500.5" y="374.388" fill="#39D4FF" fill-rule="evenodd" clip-rule="evenodd"/><rect width="18.718" height="18.725" x="447.334" y="374.388" fill="#39D4FF" fill-rule="evenodd" clip-rule="evenodd"/><rect width="18.717" height="18.725" x="394.17" y="374.388" fill="#39D4FF" fill-rule="evenodd" clip-rule="evenodd"/><rect width="18.72" height="18.725" x="341.003" y="374.388" fill="#39D4FF" fill-rule="evenodd" clip-rule="evenodd"/><rect width="18.726" height="18.725" x="287.839" y="374.388" fill="#39D4FF" fill-rule="evenodd" clip-rule="evenodd"/></g></svg>