<svg xmlns="http://www.w3.org/2000/svg" xmlns:xlink="http://www.w3.org/1999/xlink" id="Layer_1" width="800" height="800" x="0" y="0" enable-background="new 0 0 800 800" version="1.0" viewBox="201.623 200.414 421.483 378.354" xml:space="preserve"><g><path fill="#BCC2C6" d="M215.708,247.947h393.309c3.881,0,7.402,1.569,9.948,4.123c2.554,2.553,4.14,6.075,4.14,9.964v302.646 c0,3.873-1.586,7.395-4.14,9.948c-2.546,2.553-6.067,4.14-9.948,4.14H215.708c-3.872,0-7.402-1.587-9.946-4.14 c-2.555-2.554-4.139-6.075-4.139-9.948V262.033c0-3.889,1.584-7.411,4.139-9.964C208.306,249.516,211.836,247.947,215.708,247.947"/><path fill="#FFF" fill-rule="evenodd" d="M215.708,253.822c-2.18,0-4.248,0.867-5.792,2.42 c-1.534,1.535-2.412,3.605-2.412,5.792v302.646c0,2.171,0.878,4.24,2.412,5.792c1.544,1.536,3.612,2.404,5.792,2.404h393.309 c2.18,0,4.249-0.868,5.783-2.404c1.543-1.552,2.412-3.621,2.412-5.792V262.033c0-2.187-0.869-4.256-2.412-5.792 c-1.534-1.553-3.612-2.42-5.783-2.42H215.708z" clip-rule="evenodd"/><path fill="#BCC2C6" fill-rule="evenodd" d="M249.078,327.507h157.527c2.811,0,5.106,2.302,5.106,5.106v20.896 c0,2.804-2.296,5.107-5.106,5.107H249.078c-2.812,0-5.106-2.286-5.106-5.107v-20.896 C243.972,329.809,246.267,327.507,249.078,327.507" clip-rule="evenodd"/><path fill="#BCC2C6" fill-rule="evenodd" d="M249.078,384.769h157.527c2.811,0,5.106,2.303,5.106,5.106v20.895 c0,2.806-2.296,5.106-5.106,5.106H249.078c-2.812,0-5.106-2.301-5.106-5.106v-20.895 C243.972,387.072,246.267,384.769,249.078,384.769" clip-rule="evenodd"/><path fill="#BCC2C6" fill-rule="evenodd" d="M249.078,442.031h157.527c2.811,0,5.106,2.285,5.106,5.106v20.878 c0,2.822-2.296,5.107-5.106,5.107H249.078c-2.812,0-5.106-2.285-5.106-5.107v-20.878 C243.972,444.316,246.267,442.031,249.078,442.031" clip-rule="evenodd"/><rect width="156.924" height="19.345" x="249.381" y="447.905" fill="#FFF" fill-rule="evenodd" clip-rule="evenodd"/><rect width="156.924" height="19.328" x="249.381" y="390.66" fill="#FFF" fill-rule="evenodd" clip-rule="evenodd"/><rect width="156.924" height="19.326" x="249.381" y="333.398" fill="#FFF" fill-rule="evenodd" clip-rule="evenodd"/><path fill="#BCC2C6" d="M322.381,512.224h-58.898c-2.263,0-4.323,0.935-5.816,2.437c-1.493,1.484-2.42,3.556-2.42,5.808 c0,2.271,0.918,4.341,2.403,5.826l0.017,0.016c1.485,1.486,3.546,2.403,5.816,2.403h58.898c2.261,0,4.321-0.935,5.816-2.419 c1.493-1.503,2.428-3.555,2.428-5.826c0-2.268-0.926-4.323-2.421-5.825C326.711,513.158,324.649,512.224,322.381,512.224 M263.482,504.162h58.898c4.48,0,8.553,1.837,11.507,4.791l0.018,0.016c2.953,2.955,4.79,7.027,4.79,11.499 c0,4.491-1.837,8.58-4.79,11.533c-2.955,2.955-7.036,4.789-11.524,4.789h-58.898c-4.473,0-8.545-1.834-11.508-4.789l-0.007-0.017 h-0.011c-2.954-2.972-4.788-7.044-4.788-11.517c0-4.487,1.834-8.56,4.788-11.515C254.911,505.999,258.993,504.162,263.482,504.162z"/><path fill="#34495E" d="M260.278,497.504h58.897c4.481,0,8.554,1.819,11.507,4.773l0.017,0.017c2.954,2.954,4.79,7.043,4.79,11.515 c0,4.491-1.836,8.563-4.79,11.518c-2.953,2.952-7.033,4.789-11.523,4.789h-58.897c-4.465,0-8.545-1.837-11.508-4.789l0,0 l-0.009-0.019c-2.954-2.954-4.79-7.024-4.79-11.499c0-4.488,1.836-8.561,4.79-11.531 C251.708,499.323,255.789,497.504,260.278,497.504"/><path fill="#27CABF" d="M319.176,502.344c3.046,0,5.949,1.22,8.104,3.371c2.152,2.137,3.354,5.057,3.354,8.094 c0,3.038-1.21,5.941-3.364,8.097c-2.152,2.151-5.048,3.354-8.094,3.354h-58.897c-3.038,0-5.942-1.187-8.086-3.339l-0.018-0.016 c-2.152-2.155-3.345-5.059-3.345-8.097c0-3.054,1.209-5.94,3.362-8.094c2.144-2.151,5.048-3.371,8.086-3.371H319.176z"/><path fill="#51F4E9" d="M319.176,502.344c3.046,0,5.949,1.22,8.104,3.371c2.152,2.137,3.354,5.057,3.354,8.094 c0,0.786-0.075,1.553-0.235,2.304c-0.45-2.185-1.525-4.188-3.119-5.79c-2.154-2.154-5.058-3.356-8.104-3.356h-58.897 c-3.038,0-5.942,1.22-8.086,3.356c-1.602,1.602-2.68,3.621-3.13,5.807c-0.159-0.768-0.232-1.534-0.232-2.32 c0-3.054,1.209-5.94,3.362-8.094c2.144-2.151,5.048-3.371,8.086-3.371H319.176z"/><path fill="#BCC2C6" fill-rule="evenodd" d="M247.903,289.921h159.879c2.161,0,3.93,1.769,3.93,3.922v0.017 c0,2.154-1.769,3.922-3.93,3.922H247.903c-2.163,0-3.932-1.769-3.932-3.922v-0.017C243.972,291.69,245.74,289.921,247.903,289.921" clip-rule="evenodd"/><path fill="#34495E" fill-rule="evenodd" d="M446.702,474.075h125.806c4.541,0,8.246-3.705,8.246-8.244V298.15 c0-4.523-3.723-8.229-8.246-8.229H446.702c-4.523,0-8.236,3.705-8.236,8.229v167.681 C438.466,470.354,442.171,474.075,446.702,474.075" clip-rule="evenodd"/><path fill="#22A6EF" d="M446.702,295.579h125.806c1.42,0,2.58,1.168,2.58,2.571v167.681c0,1.419-1.169,2.569-2.58,2.569H446.702 c-1.41,0-2.579-1.15-2.579-2.569V298.15C444.123,296.747,445.283,295.579,446.702,295.579"/><path fill="#34495E" fill-rule="evenodd" d="M506.777,380.53c1.56,1.568,4.098,1.568,5.666,0 c1.56-1.552,1.56-4.089,0-5.659c-1.568-1.567-4.106-1.567-5.666,0C505.209,376.44,505.209,378.978,506.777,380.53 M509.605,415.193 l-18.742-18.742c-10.323-10.313-10.323-27.17,0-37.501c10.313-10.314,27.17-10.314,37.493,0c10.314,10.331,10.314,27.188,0,37.501 L509.605,415.193z" clip-rule="evenodd"/><path fill="#39D4FF" fill-rule="evenodd" d="M502.195,385.119c-4.089-4.105-4.089-10.731,0-14.82 c4.097-4.089,10.731-4.089,14.819,0c4.098,4.089,4.098,10.715,0,14.82C512.927,389.208,506.292,389.208,502.195,385.119 M509.605,406.916l-14.604-14.604c-8.035-8.027-8.035-21.179,0-29.207c8.036-8.044,21.18-8.044,29.208,0 c8.035,8.028,8.035,21.18,0,29.207L509.605,406.916z" clip-rule="evenodd"/><path fill="#1C8DCB" fill-rule="evenodd" d="M509.605,417.965c15.479,0,28.03,0.918,28.03,2.053 s-12.551,2.068-28.03,2.068c-15.471,0-28.022-0.934-28.022-2.068S494.135,417.965,509.605,417.965" clip-rule="evenodd"/></g></svg>