<svg xmlns="http://www.w3.org/2000/svg" xmlns:xlink="http://www.w3.org/1999/xlink" id="Layer_1" width="800" height="800" x="0" y="0" enable-background="new 0 0 800 800" version="1.0" viewBox="200.996 191.994 421.462 378.32" xml:space="preserve"><g><path fill="#BCC2C6" d="M215.081,239.515H608.37c3.881,0,7.402,1.578,9.947,4.13c2.555,2.554,4.14,6.075,4.14,9.956v302.629 c0,3.888-1.585,7.409-4.14,9.946c-2.545,2.552-6.066,4.138-9.947,4.138H215.081c-3.873,0-7.393-1.586-9.947-4.138 c-2.553-2.537-4.138-6.059-4.138-9.946V253.601c0-3.88,1.585-7.402,4.138-9.956C207.688,241.092,211.208,239.515,215.081,239.515"/><path fill="#FFF" fill-rule="evenodd" d="M215.081,245.397c-2.178,0-4.24,0.876-5.782,2.412 c-1.545,1.544-2.412,3.613-2.412,5.792v302.629c0,2.169,0.867,4.256,2.412,5.791c1.542,1.533,3.604,2.402,5.782,2.402H608.37 c2.188,0,4.248-0.869,5.793-2.402c1.535-1.535,2.403-3.605,2.403-5.791V253.601c0-2.187-0.868-4.248-2.403-5.792 c-1.545-1.543-3.621-2.412-5.793-2.412H215.081z" clip-rule="evenodd"/><rect width="60.581" height="60.582" x="247.907" y="374.624" fill="#BCC2C6" fill-rule="evenodd" clip-rule="evenodd"/><rect width="60.58" height="60.582" x="325.795" y="374.624" fill="#BCC2C6" fill-rule="evenodd" clip-rule="evenodd"/><rect width="48.813" height="48.798" x="331.688" y="380.516" fill="#FFF" fill-rule="evenodd" clip-rule="evenodd"/><rect width="48.806" height="48.798" x="253.8" y="380.516" fill="#FFF" fill-rule="evenodd" clip-rule="evenodd"/><rect width="48.813" height="24.398" x="331.688" y="404.915" fill="#EBEFF0" fill-rule="evenodd" clip-rule="evenodd"/><rect width="48.806" height="24.398" x="253.8" y="404.915" fill="#EBEFF0" fill-rule="evenodd" clip-rule="evenodd"/><polygon fill="#34495E" fill-rule="evenodd" points="271.84 418.466 284.716 418.466 284.716 414.144 280.969 414.144 280.969 391.363 271.69 391.363 271.69 396.003 275.895 396.003 275.895 414.144 271.84 414.144" clip-rule="evenodd"/><path fill="#34495E" fill-rule="evenodd" d="M350.312,399.407c0.033-2.437,2.787-3.788,5.457-3.788 c3.471,0,6.142,1.385,6.142,4.322c0,3.138-3.755,3.489-5.8,3.489c-5.332,0-10.98,1.852-10.98,8.077c0,2.402,0,4.757,0,7.127h21.92 v-4.758h-16.823v-2.319c0-2.938,3.64-3.521,5.884-3.521c5.683,0,10.865-1.318,10.865-8.194c0-6.425-5.875-8.628-11.29-8.628 c-4.991,0-10.397,2.471-10.439,8.195H350.312z" clip-rule="evenodd"/><rect width="60.572" height="60.582" x="437.077" y="374.624" fill="#BCC2C6" fill-rule="evenodd" clip-rule="evenodd"/><rect width="60.58" height="60.582" x="514.964" y="374.624" fill="#BCC2C6" fill-rule="evenodd" clip-rule="evenodd"/><rect width="48.798" height="48.798" x="520.855" y="380.516" fill="#FFF" fill-rule="evenodd" clip-rule="evenodd"/><rect width="48.808" height="48.798" x="442.959" y="380.516" fill="#FFF" fill-rule="evenodd" clip-rule="evenodd"/><rect width="48.798" height="24.398" x="520.855" y="404.915" fill="#EBEFF0" fill-rule="evenodd" clip-rule="evenodd"/><rect width="48.808" height="24.398" x="442.959" y="404.915" fill="#EBEFF0" fill-rule="evenodd" clip-rule="evenodd"/><path fill="#34495E" fill-rule="evenodd" d="M467.484,406.65c4.872,0,5.757,2.02,5.757,3.638 c0,2.904-3.438,3.988-6.033,3.988c-2.203,0-5.949-0.968-5.949-3.755h-5.148c0.041,6.159,5.916,8.312,11.056,8.312 c5.226,0,11.449-1.97,11.449-8.577c0-2.287-1.819-4.842-4.405-5.691c2.36-0.734,3.754-3.205,3.754-5.341 c-0.049-5.758-5.541-8.228-10.639-8.228c-4.99,0-10.789,2.119-10.789,7.96h5.106c0-2.47,3.246-3.321,5.642-3.321 c4.338,0,5.573,2.053,5.573,3.588c-0.042,2.52-2.938,3.254-5.691,3.254h-3.905v4.173H467.484z" clip-rule="evenodd"/><path fill="#34495E" fill-rule="evenodd" d="M539.446,408.335l9.171-12.516v12.516H539.446z M545.871,391.396 l-12.183,16.706l0.468,5.189h14.461v5.14h5.032v-5.14h3.17v-4.957h-3.17v-16.938H545.871z" clip-rule="evenodd"/><rect width="5.891" height="5.892" x="410.708" y="390.646" fill="#BCC2C6" fill-rule="evenodd" clip-rule="evenodd"/><rect width="5.891" height="5.875" x="410.708" y="413.309" fill="#BCC2C6" fill-rule="evenodd" clip-rule="evenodd"/><path fill="#BCC2C6" fill-rule="evenodd" d="M328.849,480.966h165.754c2.17,0,3.939,1.769,3.939,3.938l0,0 c0,2.152-1.77,3.922-3.939,3.922H328.849c-2.169,0-3.938-1.77-3.938-3.922l0,0C324.911,482.734,326.68,480.966,328.849,480.966" clip-rule="evenodd"/><path fill="#BCC2C6" fill-rule="evenodd" d="M368.401,509.403h86.648c2.17,0,3.939,1.77,3.939,3.922v0.018 c0,2.152-1.77,3.922-3.939,3.922h-86.648c-2.168,0-3.938-1.77-3.938-3.922v-0.018C364.463,511.173,366.233,509.403,368.401,509.403" clip-rule="evenodd"/></g></svg>