<svg xmlns="http://www.w3.org/2000/svg" xmlns:xlink="http://www.w3.org/1999/xlink" id="Layer_1" width="800" height="800" x="0" y="0" enable-background="new 0 0 800 800" version="1.0" viewBox="189.204 191.994 421.455 378.32" xml:space="preserve"><g><path fill="#BCC2C6" d="M203.29,239.515h393.289c3.881,0,7.404,1.578,9.949,4.13c2.553,2.554,4.13,6.075,4.13,9.956v302.629 c0,3.888-1.577,7.409-4.13,9.946c-2.545,2.552-6.068,4.138-9.949,4.138H203.29c-3.879,0-7.402-1.586-9.946-4.138 c-2.555-2.537-4.14-6.059-4.14-9.946V253.601c0-3.88,1.585-7.402,4.14-9.956C195.888,241.092,199.411,239.515,203.29,239.515"/><path fill="#FFF" fill-rule="evenodd" d="M203.29,245.397c-2.178,0-4.248,0.876-5.781,2.412 c-1.546,1.544-2.414,3.613-2.414,5.792v302.629c0,2.169,0.868,4.256,2.414,5.791c1.533,1.533,3.604,2.402,5.781,2.402h393.289 c2.18,0,4.248-0.869,5.784-2.402c1.544-1.535,2.411-3.605,2.411-5.791V253.601c0-2.187-0.867-4.248-2.411-5.792 c-1.536-1.543-3.604-2.412-5.784-2.412H203.29z" clip-rule="evenodd"/><path fill="#34495E" fill-rule="evenodd" d="M399.936,326.627l13.501-13.502 c6.635-6.642,17.465-6.642,24.098,0c6.635,6.643,6.643,17.457,0.01,24.099l-13.502,13.501l13.492,13.501 c6.643,6.642,6.643,17.457,0,24.099c-6.641,6.642-17.463,6.642-24.098,0l-13.501-13.485l-13.493,13.485 c-6.643,6.642-17.465,6.642-24.1,0c-6.641-6.642-6.65-17.457-0.008-24.099l13.492-13.501l-13.5-13.501 c-6.635-6.625-6.635-17.457,0-24.099c6.643-6.642,17.473-6.642,24.115,0L399.936,326.627z" clip-rule="evenodd"/><path fill="#F65C4C" fill-rule="evenodd" d="M382.28,317.281l17.655,17.657l17.655-17.657 c4.34-4.339,11.441-4.339,15.781,0l0.008,0.017c4.34,4.339,4.34,11.431,0,15.771l-17.666,17.657l17.658,17.657 c4.348,4.355,4.348,11.432,0,15.788l0,0c-4.34,4.339-11.441,4.339-15.781,0l-17.655-17.657L382.28,384.17 c-4.34,4.339-11.434,4.339-15.781,0l0,0c-4.34-4.356-4.34-11.432,0-15.788l17.658-17.657l-17.666-17.657 c-4.332-4.34-4.332-11.432,0-15.771l0.008-0.017C370.837,312.942,377.94,312.942,382.28,317.281" clip-rule="evenodd"/><path fill="#BCC2C6" d="M430.984,511.473h-58.896c-2.26,0-4.322,0.935-5.815,2.438c-1.503,1.484-2.429,3.555-2.429,5.807 c0,2.271,0.926,4.34,2.413,5.826l0.016,0.016c1.486,1.485,3.538,2.403,5.815,2.403h58.896c2.263,0,4.323-0.935,5.815-2.419 c1.494-1.504,2.422-3.556,2.422-5.826c0-2.269-0.928-4.322-2.412-5.823C435.315,512.407,433.255,511.473,430.984,511.473 M372.089,503.412h58.896c4.474,0,8.554,1.836,11.509,4.791l0.016,0.016c2.947,2.954,4.781,7.026,4.781,11.498 c0,4.489-1.834,8.578-4.781,11.532c-2.953,2.953-7.035,4.79-11.524,4.79h-58.896c-4.472,0-8.544-1.837-11.506-4.79l-0.008-0.017 h-0.009c-2.954-2.971-4.79-7.043-4.79-11.516c0-4.488,1.836-8.561,4.79-11.514C363.52,505.248,367.601,503.412,372.089,503.412z"/><path fill="#34495E" d="M368.885,496.754h58.896c4.473,0,8.553,1.819,11.508,4.772l0.016,0.017 c2.954,2.955,4.791,7.043,4.791,11.516c0,4.488-1.837,8.561-4.791,11.516c-2.953,2.953-7.035,4.789-11.523,4.789h-58.896 c-4.471,0-8.544-1.836-11.507-4.789h-0.008l-0.008-0.018c-2.953-2.954-4.791-7.025-4.791-11.498c0-4.489,1.838-8.561,4.791-11.532 C360.315,498.573,364.396,496.754,368.885,496.754"/><path fill="#27CABF" d="M427.78,501.594c3.039,0,5.949,1.218,8.096,3.37c2.152,2.137,3.362,5.059,3.362,8.095 s-1.218,5.941-3.362,8.095c-2.154,2.152-5.051,3.354-8.096,3.354h-58.896c-3.036,0-5.939-1.185-8.094-3.339l-0.016-0.016 c-2.146-2.153-3.347-5.059-3.347-8.095c0-3.055,1.211-5.941,3.362-8.095c2.154-2.152,5.05-3.37,8.094-3.37H427.78z"/><path fill="#51F4E9" d="M427.78,501.594c3.039,0,5.949,1.218,8.096,3.37c2.152,2.137,3.362,5.059,3.362,8.095 c0,0.784-0.083,1.552-0.235,2.303c-0.449-2.186-1.525-4.188-3.127-5.791c-2.146-2.153-5.057-3.354-8.096-3.354h-58.896 c-3.044,0-5.939,1.22-8.094,3.354c-1.595,1.603-2.679,3.622-3.13,5.791c-0.148-0.751-0.232-1.519-0.232-2.303 c0-3.055,1.211-5.941,3.362-8.095c2.154-2.152,5.05-3.37,8.094-3.37H427.78z"/><path fill="#BCC2C6" fill-rule="evenodd" d="M278.856,449.957h242.156c2.162,0,3.931,1.77,3.931,3.939l0,0 c0,2.17-1.769,3.938-3.931,3.938H278.856c-2.16,0-3.93-1.769-3.93-3.938l0,0C274.927,451.727,276.696,449.957,278.856,449.957" clip-rule="evenodd"/><path fill="#BCC2C6" fill-rule="evenodd" d="M341.366,469.733h117.139c2.17,0,3.939,1.771,3.939,3.939l0,0 c0,2.17-1.77,3.938-3.939,3.938H341.366c-2.17,0-3.939-1.769-3.939-3.938l0,0C337.427,471.504,339.196,469.733,341.366,469.733" clip-rule="evenodd"/></g></svg>