<svg xmlns="http://www.w3.org/2000/svg" xmlns:xlink="http://www.w3.org/1999/xlink" id="Layer_1" width="800" height="800" x="0" y="0" enable-background="new 0 0 800 800" version="1.0" viewBox="207.262 191.994 421.455 378.329" xml:space="preserve"><g><path fill="#BCC2C6" d="M221.349,239.515H614.64c3.88,0,7.401,1.586,9.946,4.13c2.553,2.554,4.131,6.075,4.131,9.956v302.637 c0,3.88-1.578,7.401-4.131,9.947c-2.545,2.552-6.066,4.138-9.946,4.138H221.349c-3.88,0-7.402-1.586-9.946-4.138 c-2.553-2.546-4.14-6.067-4.14-9.947V253.601c0-3.88,1.587-7.402,4.14-9.956C213.946,241.101,217.469,239.515,221.349,239.515"/><path fill="#FFF" fill-rule="evenodd" d="M221.349,245.397c-2.179,0-4.247,0.868-5.782,2.412 c-1.545,1.544-2.411,3.613-2.411,5.792v302.637c0,2.178,0.866,4.248,2.411,5.79c1.535,1.535,3.604,2.412,5.782,2.412H614.64 c2.179,0,4.247-0.877,5.782-2.412c1.545-1.542,2.412-3.604,2.412-5.79V253.601c0-2.187-0.867-4.248-2.412-5.792 c-1.535-1.543-3.604-2.412-5.782-2.412H221.349z" clip-rule="evenodd"/><path fill="#BCC2C6" fill-rule="evenodd" d="M264.641,351.957h306.708c2.17,0,3.938,1.769,3.938,3.93l0,0 c0,2.169-1.769,3.938-3.938,3.938H264.641c-2.17,0-3.939-1.769-3.939-3.938l0,0C260.701,353.726,262.471,351.957,264.641,351.957" clip-rule="evenodd"/><path fill="#BCC2C6" fill-rule="evenodd" d="M264.641,332.264H465.25c2.16,0,3.929,1.777,3.929,3.938l0,0 c0,2.17-1.769,3.938-3.929,3.938H264.641c-2.17,0-3.939-1.769-3.939-3.938l0,0C260.701,334.041,262.471,332.264,264.641,332.264" clip-rule="evenodd"/><path fill="#BCC2C6" fill-rule="evenodd" d="M264.641,422.909h306.708c2.17,0,3.938,1.77,3.938,3.93 c0,2.17-1.769,3.939-3.938,3.939H264.641c-2.17,0-3.939-1.77-3.939-3.939C260.701,424.679,262.471,422.909,264.641,422.909" clip-rule="evenodd"/><path fill="#BCC2C6" fill-rule="evenodd" d="M264.641,403.224H465.25c2.16,0,3.929,1.762,3.929,3.932l0,0 c0,2.161-1.769,3.938-3.929,3.938H264.641c-2.17,0-3.939-1.776-3.939-3.938l0,0C260.701,404.985,262.471,403.224,264.641,403.224" clip-rule="evenodd"/><path fill="#BCC2C6" fill-rule="evenodd" d="M264.641,493.862h306.708c2.17,0,3.938,1.77,3.938,3.93l0,0 c0,2.169-1.769,3.939-3.938,3.939H264.641c-2.17,0-3.939-1.771-3.939-3.939l0,0C260.701,495.632,262.471,493.862,264.641,493.862" clip-rule="evenodd"/><path fill="#BCC2C6" fill-rule="evenodd" d="M264.641,474.17H465.25c2.16,0,3.929,1.776,3.929,3.938l0,0 c0,2.17-1.769,3.939-3.929,3.939H264.641c-2.17,0-3.939-1.77-3.939-3.939l0,0C260.701,475.946,262.471,474.17,264.641,474.17" clip-rule="evenodd"/><path fill="#34495E" fill-rule="evenodd" d="M264.641,308.106h116.73c2.161,0,3.93,1.769,3.93,3.93v0.008 c0,2.161-1.769,3.93-3.93,3.93h-116.73c-2.17,0-3.939-1.77-3.939-3.93v-0.008C260.701,309.875,262.471,308.106,264.641,308.106" clip-rule="evenodd"/><path fill="#34495E" fill-rule="evenodd" d="M264.641,380.186h116.73c2.161,0,3.93,1.769,3.93,3.938l0,0 c0,2.161-1.769,3.931-3.93,3.931h-116.73c-2.17,0-3.939-1.77-3.939-3.931l0,0C260.701,381.955,262.471,380.186,264.641,380.186" clip-rule="evenodd"/><path fill="#34495E" fill-rule="evenodd" d="M264.641,452.265h116.73c2.161,0,3.93,1.771,3.93,3.939l0,0 c0,2.161-1.769,3.929-3.93,3.929h-116.73c-2.17,0-3.939-1.768-3.939-3.929l0,0C260.701,454.035,262.471,452.265,264.641,452.265" clip-rule="evenodd"/></g></svg>