<svg xmlns="http://www.w3.org/2000/svg" xmlns:xlink="http://www.w3.org/1999/xlink" id="Layer_1" width="800" height="800" x="0" y="0" enable-background="new 0 0 800 800" version="1.0" viewBox="213.107 191.994 421.454 378.329" xml:space="preserve"><g><path fill="#BCC2C6" d="M227.192,239.515h393.282c3.88,0,7.402,1.586,9.955,4.13c2.544,2.554,4.131,6.075,4.131,9.956v302.637 c0,3.88-1.587,7.401-4.131,9.947c-2.553,2.552-6.075,4.138-9.955,4.138H227.192c-3.88,0-7.401-1.586-9.955-4.138 c-2.546-2.546-4.13-6.067-4.13-9.947V253.601c0-3.88,1.584-7.402,4.13-9.956C219.791,241.101,223.313,239.515,227.192,239.515"/><path fill="#FFF" fill-rule="evenodd" d="M227.192,245.397c-2.187,0-4.256,0.868-5.791,2.412 c-1.544,1.544-2.412,3.613-2.412,5.792v302.637c0,2.178,0.868,4.248,2.412,5.79c1.535,1.535,3.604,2.412,5.791,2.412h393.282 c2.178,0,4.248-0.877,5.783-2.412c1.544-1.542,2.419-3.604,2.419-5.79V253.601c0-2.187-0.875-4.248-2.419-5.792 c-1.535-1.543-3.605-2.412-5.783-2.412H227.192z" clip-rule="evenodd"/><rect width="41.297" height="41.297" x="271.776" y="277.841" fill="#34495E" fill-rule="evenodd" clip-rule="evenodd"/><rect width="29.532" height="29.531" x="277.659" y="283.724" fill="#22A6EF"/><path fill="#BCC2C6" fill-rule="evenodd" d="M331.899,304.401h240.052c2.17,0,3.938,1.769,3.938,3.93l0,0 c0,2.17-1.769,3.938-3.938,3.938H331.899c-2.17,0-3.94-1.769-3.94-3.938l0,0C327.959,306.17,329.729,304.401,331.899,304.401" clip-rule="evenodd"/><path fill="#BCC2C6" fill-rule="evenodd" d="M331.899,284.708h156.424c2.17,0,3.938,1.777,3.938,3.938l0,0 c0,2.17-1.769,3.931-3.938,3.931H331.899c-2.17,0-3.94-1.761-3.94-3.931l0,0C327.959,286.485,329.729,284.708,331.899,284.708" clip-rule="evenodd"/><path fill="#BCC2C6" fill-rule="evenodd" d="M331.899,375.346h240.052c2.17,0,3.938,1.777,3.938,3.939 c0,2.169-1.769,3.938-3.938,3.938H331.899c-2.17,0-3.94-1.769-3.94-3.938C327.959,377.123,329.729,375.346,331.899,375.346" clip-rule="evenodd"/><path fill="#BCC2C6" fill-rule="evenodd" d="M331.899,355.661h156.424c2.17,0,3.938,1.769,3.938,3.939l0,0 c0,2.161-1.769,3.938-3.938,3.938H331.899c-2.17,0-3.94-1.777-3.94-3.938l0,0C327.959,357.43,329.729,355.661,331.899,355.661" clip-rule="evenodd"/><rect width="41.297" height="41.297" x="271.776" y="348.794" fill="#34495E" fill-rule="evenodd" clip-rule="evenodd"/><rect width="29.532" height="29.531" x="277.659" y="354.676" fill="#22A6EF"/><path fill="#BCC2C6" fill-rule="evenodd" d="M331.899,446.308h240.052c2.17,0,3.938,1.76,3.938,3.93l0,0 c0,2.17-1.769,3.938-3.938,3.938H331.899c-2.17,0-3.94-1.769-3.94-3.938l0,0C327.959,448.067,329.729,446.308,331.899,446.308" clip-rule="evenodd"/><path fill="#BCC2C6" fill-rule="evenodd" d="M331.899,426.613h156.424c2.17,0,3.938,1.778,3.938,3.939l0,0 c0,2.161-1.769,3.932-3.938,3.932H331.899c-2.17,0-3.94-1.771-3.94-3.932l0,0C327.959,428.392,329.729,426.613,331.899,426.613" clip-rule="evenodd"/><rect width="41.297" height="41.296" x="271.776" y="419.747" fill="#34495E" fill-rule="evenodd" clip-rule="evenodd"/><rect width="29.532" height="29.531" x="277.659" y="425.63" fill="#22A6EF"/><path fill="#BCC2C6" fill-rule="evenodd" d="M331.899,517.252h240.052c2.17,0,3.938,1.777,3.938,3.938 c0,2.17-1.769,3.938-3.938,3.938H331.899c-2.17,0-3.94-1.768-3.94-3.938C327.959,519.029,329.729,517.252,331.899,517.252" clip-rule="evenodd"/><path fill="#BCC2C6" fill-rule="evenodd" d="M331.899,497.567h156.424c2.17,0,3.938,1.769,3.938,3.938 c0,2.161-1.769,3.932-3.938,3.932H331.899c-2.17,0-3.94-1.771-3.94-3.932C327.959,499.336,329.729,497.567,331.899,497.567" clip-rule="evenodd"/><rect width="41.297" height="41.298" x="271.776" y="490.699" fill="#34495E" fill-rule="evenodd" clip-rule="evenodd"/><rect width="29.532" height="29.53" x="277.659" y="496.583" fill="#22A6EF"/></g></svg>