<svg xmlns="http://www.w3.org/2000/svg" xmlns:xlink="http://www.w3.org/1999/xlink" id="Layer_1" width="800" height="800" x="0" y="0" enable-background="new 0 0 800 800" version="1.0" viewBox="203.991 200.414 421.477 378.354" xml:space="preserve"><g><path fill="#BCC2C6" d="M218.076,247.947H611.38c3.879,0,7.401,1.585,9.954,4.123c2.545,2.553,4.133,6.075,4.133,9.964v302.646 c0,3.873-1.588,7.395-4.133,9.948c-2.553,2.553-6.075,4.14-9.954,4.14H218.076c-3.879,0-7.4-1.587-9.953-4.14 c-2.546-2.554-4.132-6.075-4.132-9.948V262.033c0-3.889,1.586-7.411,4.132-9.964C210.676,249.532,214.197,247.947,218.076,247.947"/><path fill="#FFF" fill-rule="evenodd" d="M218.076,253.822c-2.186,0-4.254,0.884-5.789,2.42 c-1.545,1.535-2.414,3.605-2.414,5.792v302.646c0,2.171,0.869,4.24,2.414,5.792c1.535,1.536,3.604,2.404,5.789,2.404H611.38 c2.177,0,4.246-0.868,5.782-2.404c1.543-1.552,2.42-3.604,2.42-5.792V262.033c0-2.187-0.877-4.256-2.42-5.792 c-1.536-1.553-3.605-2.42-5.782-2.42H218.076z" clip-rule="evenodd"/><path fill="#34495E" fill-rule="evenodd" d="M414.724,429.73L414.724,429.73c1.62,0,2.946,1.318,2.946,2.938 v16.989c0,1.62-1.326,2.938-2.946,2.938l0,0c-1.618,0-2.944-1.317-2.944-2.938v-16.989 C411.779,431.049,413.105,429.73,414.724,429.73" clip-rule="evenodd"/><path fill="#34495E" fill-rule="evenodd" d="M401.832,424.373v0.017c1.143,1.136,1.143,3.005,0,4.155 l-12.018,12.018c-1.144,1.135-3.021,1.135-4.154,0c-1.152-1.15-1.152-3.021,0-4.172l12.007-12.018 C398.811,423.239,400.681,423.239,401.832,424.373" clip-rule="evenodd"/><path fill="#34495E" fill-rule="evenodd" d="M396.49,411.488L396.49,411.488c0,1.62-1.327,2.939-2.945,2.939 h-16.99c-1.619,0-2.946-1.319-2.946-2.939c0-1.617,1.327-2.938,2.946-2.938h16.99C395.163,408.551,396.49,409.871,396.49,411.488" clip-rule="evenodd"/><path fill="#34495E" fill-rule="evenodd" d="M401.832,398.588L401.832,398.588 c-1.151,1.151-3.021,1.151-4.165,0l-12.007-12c-1.152-1.15-1.152-3.021,0-4.172l0,0c1.134-1.134,3.011-1.134,4.154,0l12.018,12.018 C402.975,395.567,402.975,397.453,401.832,398.588" clip-rule="evenodd"/><path fill="#34495E" fill-rule="evenodd" d="M414.724,370.382L414.724,370.382c1.62,0,2.946,1.319,2.946,2.938 v16.99c0,1.619-1.326,2.937-2.946,2.937l0,0c-1.618,0-2.944-1.318-2.944-2.937v-16.99 C411.779,371.701,413.105,370.382,414.724,370.382" clip-rule="evenodd"/><path fill="#34495E" fill-rule="evenodd" d="M443.789,382.415L443.789,382.415 c1.152,1.152,1.152,3.022,0,4.172l-12.009,12c-1.143,1.151-3.011,1.151-4.164,0l0,0c-1.135-1.135-1.135-3.021,0-4.155 l12.017-12.018C440.777,381.281,442.654,381.281,443.789,382.415" clip-rule="evenodd"/><path fill="#34495E" fill-rule="evenodd" d="M455.839,411.488L455.839,411.488c0,1.62-1.325,2.939-2.946,2.939 h-16.998c-1.609,0-2.938-1.319-2.938-2.939c0-1.617,1.328-2.938,2.938-2.938h16.998 C454.514,408.551,455.839,409.871,455.839,411.488" clip-rule="evenodd"/><path fill="#34495E" fill-rule="evenodd" d="M443.789,440.563L443.789,440.563 c-1.135,1.135-3.012,1.135-4.156,0l-12.017-12.018c-1.135-1.15-1.135-3.02,0-4.172c1.153-1.134,3.021-1.134,4.164,0l12.009,12.018 C444.941,437.541,444.941,439.412,443.789,440.563" clip-rule="evenodd"/><path fill="#BCC2C6" fill-rule="evenodd" d="M371.396,302.456h86.654c2.16,0,3.938,1.769,3.938,3.939l0,0 c0,2.152-1.777,3.921-3.938,3.921h-86.654c-2.16,0-3.93-1.769-3.93-3.921l0,0C367.467,304.224,369.236,302.456,371.396,302.456" clip-rule="evenodd"/><path fill="#BCC2C6" fill-rule="evenodd" d="M299.449,516.38h230.56c2.159,0,3.921,1.769,3.921,3.938l0,0 c0,2.171-1.762,3.939-3.921,3.939h-230.56c-2.17,0-3.932-1.769-3.932-3.939l0,0C295.518,518.148,297.279,516.38,299.449,516.38" clip-rule="evenodd"/></g></svg>