<svg xmlns="http://www.w3.org/2000/svg" xmlns:xlink="http://www.w3.org/1999/xlink" id="Layer_1" width="800" height="800" x="0" y="0" enable-background="new 0 0 800 800" version="1.0" viewBox="197.463 200.414 421.481 378.354" xml:space="preserve"><g><path fill="#BCC2C6" d="M211.549,247.947h393.309c3.881,0,7.402,1.585,9.948,4.123c2.552,2.553,4.138,6.075,4.138,9.964v302.646 c0,3.873-1.586,7.395-4.138,9.948c-2.546,2.553-6.067,4.14-9.948,4.14H211.549c-3.873,0-7.394-1.587-9.947-4.14 c-2.553-2.554-4.139-6.075-4.139-9.948V262.033c0-3.889,1.586-7.411,4.139-9.964C204.155,249.532,207.676,247.947,211.549,247.947"/><path fill="#FFF" fill-rule="evenodd" d="M211.549,253.822c-2.178,0-4.24,0.884-5.784,2.42 c-1.543,1.535-2.409,3.605-2.409,5.792v302.646c0,2.171,0.866,4.24,2.409,5.792c1.544,1.536,3.606,2.404,5.784,2.404h393.309 c2.188,0,4.248-0.868,5.792-2.404c1.536-1.552,2.403-3.604,2.403-5.792V262.033c0-2.187-0.867-4.256-2.403-5.792 c-1.544-1.553-3.621-2.42-5.792-2.42H211.549z" clip-rule="evenodd"/><path fill="#BCC2C6" d="M312.088,389.926h59.348c3.397,0,6.484,1.385,8.729,3.623v0.016c2.245,2.236,3.64,5.324,3.64,8.729 c0,3.388-1.395,6.492-3.64,8.729c-2.236,2.236-5.324,3.622-8.729,3.622h-59.348c-3.396,0-6.476-1.386-8.729-3.622v-0.017h-0.009 c-2.235-2.235-3.629-5.341-3.629-8.712c0-3.404,1.394-6.509,3.629-8.745C305.596,391.311,308.684,389.926,312.088,389.926"/><path fill="#BCC2C6" fill-rule="evenodd" d="M307.063,380.195h202.279c3.772,0,7.353,1.503,10.014,4.173 c2.671,2.67,4.183,6.242,4.183,10.03c0,3.772-1.496,7.36-4.164,10.03c-2.671,2.671-6.26,4.173-10.032,4.173H307.063 c-3.763,0-7.326-1.484-9.946-4.105l-0.084-0.083c-2.654-2.67-4.164-6.243-4.164-10.015c0-3.771,1.502-7.376,4.164-10.03 C299.703,381.698,303.291,380.195,307.063,380.195" clip-rule="evenodd"/><path fill="#FFF" d="M509.343,385.721c2.304,0,4.507,0.901,6.134,2.536c1.628,1.636,2.546,3.838,2.546,6.142 c0,2.304-0.918,4.506-2.555,6.125c-1.627,1.637-3.821,2.554-6.125,2.554H307.063c-2.294,0-4.389-1.018-6.125-2.536l-0.017-0.018 c-1.617-1.619-2.536-3.821-2.536-6.125c0-2.303,0.926-4.505,2.553-6.142c1.636-1.619,3.821-2.536,6.125-2.536H509.343z"/><path fill="#34495E" fill-rule="evenodd" d="M307.063,380.195h59.365c3.771,0,7.36,1.503,10.023,4.173 c2.669,2.67,4.181,6.242,4.181,10.03c0,3.772-1.503,7.36-4.174,10.03c-2.67,2.671-6.259,4.173-10.03,4.173h-59.365 c-3.763,0-7.326-1.484-9.946-4.105l-0.084-0.083c-2.654-2.67-4.164-6.243-4.164-10.015c0-3.771,1.502-7.376,4.164-10.03 C299.703,381.698,303.291,380.195,307.063,380.195" clip-rule="evenodd"/><path fill="#27CABF" d="M366.429,385.721c2.304,0,4.507,0.901,6.142,2.536c1.628,1.636,2.538,3.838,2.538,6.142 c0,2.304-0.919,4.506-2.544,6.125c-1.629,1.637-3.832,2.554-6.136,2.554h-59.365c-2.294,0-4.389-1.018-6.125-2.536l-0.017-0.018 c-1.617-1.619-2.536-3.821-2.536-6.125c0-2.303,0.926-4.505,2.553-6.142c1.636-1.619,3.821-2.536,6.125-2.536H366.429z"/><path fill="#51F4E9" d="M366.429,385.721c2.304,0,4.507,0.901,6.142,2.536c1.628,1.636,2.538,3.838,2.538,6.142 c0,0.584-0.059,1.168-0.177,1.736c-0.342-1.636-1.158-3.171-2.361-4.373c-1.635-1.635-3.838-2.553-6.142-2.553h-59.365 c-2.304,0-4.489,0.918-6.125,2.553c-1.21,1.218-2.027,2.737-2.368,4.39c-0.119-0.567-0.185-1.168-0.185-1.753 c0-2.303,0.926-4.505,2.553-6.142c1.636-1.619,3.821-2.536,6.125-2.536H366.429z"/><path fill="#BCC2C6" fill-rule="evenodd" d="M325.321,476.396h165.764c2.17,0,3.938,1.786,3.938,3.938 c0,2.171-1.768,3.936-3.938,3.936H325.321c-2.168,0-3.938-1.765-3.938-3.936C321.384,478.182,323.153,476.396,325.321,476.396" clip-rule="evenodd"/><path fill="#BCC2C6" fill-rule="evenodd" d="M364.877,504.83h86.653c2.169,0,3.938,1.769,3.938,3.939l0,0 c0,2.168-1.77,3.938-3.938,3.938h-86.653c-2.17,0-3.938-1.771-3.938-3.938l0,0C360.938,506.599,362.707,504.83,364.877,504.83" clip-rule="evenodd"/></g></svg>