<svg xmlns="http://www.w3.org/2000/svg" xmlns:xlink="http://www.w3.org/1999/xlink" id="Layer_1" width="800" height="800" x="0" y="0" enable-background="new 0 0 800 800" version="1.0" viewBox="199.703 200.414 421.474 378.354" xml:space="preserve"><g><path fill="#BCC2C6" d="M213.79,247.947h393.291c3.89,0,7.41,1.585,9.965,4.123c2.545,2.553,4.13,6.075,4.13,9.964v302.646 c0,3.873-1.585,7.395-4.13,9.948c-2.555,2.553-6.075,4.14-9.965,4.14H213.79c-3.89,0-7.41-1.587-9.957-4.14 c-2.553-2.554-4.13-6.075-4.13-9.948V262.033c0-3.889,1.577-7.411,4.13-9.964C206.38,249.532,209.9,247.947,213.79,247.947"/><path fill="#FFF" fill-rule="evenodd" d="M213.79,253.822c-2.188,0-4.257,0.884-5.793,2.42 c-1.541,1.535-2.42,3.605-2.42,5.792v302.646c0,2.171,0.879,4.24,2.42,5.792c1.536,1.536,3.605,2.404,5.793,2.404h393.291 c2.189,0,4.258-0.868,5.793-2.404c1.543-1.552,2.412-3.604,2.412-5.792V262.033c0-2.187-0.869-4.256-2.412-5.792 c-1.535-1.553-3.604-2.42-5.793-2.42H213.79z" clip-rule="evenodd"/><path fill="#BCC2C6" fill-rule="evenodd" d="M392.628,335.133c3.32-5.757,10.689-7.727,16.447-4.406 s7.729,10.698,4.407,16.457c-3.321,5.757-10.692,7.727-16.449,4.406C391.275,348.269,389.298,340.892,392.628,335.133 M387.53,332.196c4.947-8.578,15.914-11.516,24.482-6.56c7.711,4.44,10.864,13.752,7.828,21.813l14.438,8.346 c1.4,0.801,1.885,2.604,1.084,4.021c-0.818,1.403-2.621,1.886-4.022,1.068l-14.438-8.328c-5.473,6.659-15.104,8.578-22.813,4.123 C385.509,351.74,382.579,340.775,387.53,332.196z" clip-rule="evenodd"/><path fill="#BCC2C6" fill-rule="evenodd" d="M327.547,476.396h165.778c2.16,0,3.93,1.786,3.93,3.938 c0,2.171-1.77,3.936-3.93,3.936H327.547c-2.161,0-3.94-1.765-3.94-3.936C323.606,478.182,325.386,476.396,327.547,476.396" clip-rule="evenodd"/><path fill="#BCC2C6" fill-rule="evenodd" d="M367.101,504.83h86.662c2.16,0,3.93,1.769,3.93,3.939l0,0 c0,2.168-1.77,3.938-3.93,3.938h-86.662c-2.152,0-3.922-1.771-3.922-3.938l0,0C363.179,506.599,364.948,504.83,367.101,504.83" clip-rule="evenodd"/><path fill="#BCC2C6" d="M514.403,405.063H455.04c-0.211,0-0.428,0.017-0.635,0.017v24.702c0.207,0,0.424,0,0.635,0h59.363 c3.389,0,6.475-1.386,8.712-3.624h0.009l0.01-0.016c2.236-2.237,3.621-5.323,3.621-8.712c0-3.405-1.385-6.492-3.621-8.729 C520.895,406.466,517.8,405.063,514.403,405.063"/><path fill="#BCC2C6" fill-rule="evenodd" d="M510.073,396.918c3.639,0,7.1,1.453,9.671,4.022 c2.57,2.571,4.024,6.043,4.024,9.682c0,3.638-1.454,7.092-4.089,9.73l0.04-0.052c-2.57,2.57-6.008,4.005-9.646,4.005h-202.27 c-3.639,0-7.096-1.435-9.673-4.005c-2.577-2.587-4.014-6.041-4.014-9.679c0-3.656,1.452-7.11,4.022-9.682 c2.568-2.569,6.025-4.022,9.664-4.022H510.073z" clip-rule="evenodd"/><path fill="#FFF" d="M307.804,401.942c-2.305,0-4.509,0.901-6.134,2.537c-1.629,1.636-2.548,3.839-2.548,6.143 s0.919,4.489,2.555,6.125c1.627,1.634,3.822,2.553,6.127,2.553h202.27c2.305,0,4.396-1.019,6.133-2.536l0.017-0.017 c1.62-1.636,2.528-3.821,2.528-6.125s-0.917-4.507-2.545-6.143c-1.636-1.619-3.828-2.537-6.133-2.537H307.804z"/><path fill="#34495E" fill-rule="evenodd" d="M510.073,396.918c3.639,0,7.1,1.453,9.671,4.022 c2.57,2.571,4.024,6.043,4.024,9.682c0,3.638-1.454,7.092-4.089,9.73l0.04-0.052c-2.57,2.57-6.008,4.005-9.646,4.005h-59.357 c-0.234,0-0.467,0-0.709-0.016l-1.26-0.065v-27.223l1.26-0.066c0.242-0.017,0.475-0.017,0.709-0.017H510.073z" clip-rule="evenodd"/><path fill="#27CABF" d="M453.628,419.3h56.445c2.305,0,4.396-1.019,6.133-2.536l0.017-0.017c1.62-1.636,2.528-3.821,2.528-6.125 s-0.917-4.507-2.545-6.143c-1.636-1.619-3.828-2.537-6.133-2.537h-56.445V419.3z"/><path fill="#51F4E9" d="M453.628,405.43h56.445c2.305,0,4.497,0.919,6.133,2.554c1.211,1.219,2.028,2.738,2.371,4.392 c0.117-0.57,0.174-1.17,0.174-1.753c0-2.304-0.917-4.507-2.545-6.143c-1.636-1.619-3.828-2.537-6.133-2.537h-56.445V405.43z"/></g></svg>