<svg xmlns="http://www.w3.org/2000/svg" xmlns:xlink="http://www.w3.org/1999/xlink" id="Layer_1" width="800" height="800" x="0" y="0" enable-background="new 0 0 800 800" version="1.0" viewBox="191.616 200.414 421.477 378.354" xml:space="preserve"><g><path fill="#BCC2C6" d="M205.703,247.947h393.292c3.889,0,7.411,1.569,9.964,4.123c2.547,2.553,4.133,6.075,4.133,9.964v302.646 c0,3.873-1.586,7.395-4.133,9.948c-2.553,2.553-6.075,4.14-9.964,4.14H205.703c-3.89,0-7.41-1.587-9.955-4.14 c-2.554-2.554-4.132-6.075-4.132-9.948V262.033c0-3.889,1.578-7.411,4.132-9.964C198.293,249.516,201.813,247.947,205.703,247.947"/><path fill="#FFF" fill-rule="evenodd" d="M205.703,253.822c-2.186,0-4.257,0.867-5.79,2.42 c-1.545,1.535-2.42,3.605-2.42,5.792v302.646c0,2.171,0.875,4.24,2.42,5.792c1.533,1.536,3.604,2.404,5.79,2.404h393.292 c2.187,0,4.256-0.868,5.792-2.404c1.544-1.552,2.411-3.621,2.411-5.792V262.033c0-2.187-0.867-4.256-2.411-5.792 c-1.536-1.553-3.605-2.42-5.792-2.42H205.703z" clip-rule="evenodd"/><rect width="54.726" height="54.726" x="236.13" y="281.593" fill="#34495E" fill-rule="evenodd" clip-rule="evenodd"/><rect width="42.727" height="42.709" x="242.12" y="287.602" fill="#22A6EF" fill-rule="evenodd" clip-rule="evenodd"/><path fill="#BCC2C6" fill-rule="evenodd" d="M323.633,295.128h175.71c2.169,0,3.938,1.77,3.938,3.939l0,0 c0,2.169-1.769,3.939-3.938,3.939h-175.71c-2.161,0-3.931-1.77-3.931-3.939l0,0C319.702,296.898,321.472,295.128,323.633,295.128" clip-rule="evenodd"/><path fill="#BCC2C6" fill-rule="evenodd" d="M323.633,314.906h152.836c2.161,0,3.93,1.769,3.93,3.938l0,0 c0,2.169-1.769,3.939-3.93,3.939H323.633c-2.161,0-3.931-1.77-3.931-3.939l0,0C319.702,316.675,321.472,314.906,323.633,314.906" clip-rule="evenodd"/><path fill="#BCC2C6" fill-rule="evenodd" d="M545.897,297.164l6.225,6.226l6.234-6.226 c1.527-1.535,4.021-1.535,5.558,0l0,0c1.535,1.536,1.535,4.022,0,5.558l-6.225,6.226l6.225,6.242c1.535,1.518,1.535,4.022,0,5.558 l0,0c-1.536,1.535-4.03,1.535-5.558,0l-6.234-6.226l-6.225,6.226c-1.534,1.535-4.03,1.535-5.566,0l0,0 c-1.534-1.536-1.534-4.04,0-5.558l6.226-6.242l-6.226-6.226c-1.534-1.536-1.534-4.022,0-5.558l0,0 C541.867,295.629,544.363,295.629,545.897,297.164" clip-rule="evenodd"/><rect width="54.726" height="54.726" x="236.13" y="357.832" fill="#34495E" fill-rule="evenodd" clip-rule="evenodd"/><rect width="42.727" height="42.726" x="242.12" y="363.84" fill="#F65C4C" fill-rule="evenodd" clip-rule="evenodd"/><path fill="#BCC2C6" fill-rule="evenodd" d="M323.633,371.368h175.71c2.169,0,3.938,1.769,3.938,3.938 s-1.769,3.938-3.938,3.938h-175.71c-2.161,0-3.931-1.769-3.931-3.938S321.472,371.368,323.633,371.368" clip-rule="evenodd"/><path fill="#BCC2C6" fill-rule="evenodd" d="M323.633,391.161h152.836c2.161,0,3.93,1.769,3.93,3.922 c0,2.17-1.769,3.939-3.93,3.939H323.633c-2.161,0-3.931-1.769-3.931-3.939C319.702,392.93,321.472,391.161,323.633,391.161" clip-rule="evenodd"/><rect width="54.726" height="54.737" x="236.13" y="434.07" fill="#34495E" fill-rule="evenodd" clip-rule="evenodd"/><rect width="42.727" height="42.727" x="242.12" y="440.078" fill="#F29B12" fill-rule="evenodd" clip-rule="evenodd"/><path fill="#BCC2C6" fill-rule="evenodd" d="M323.633,447.622h175.71c2.169,0,3.938,1.769,3.938,3.922v0.018 c0,2.152-1.769,3.921-3.938,3.921h-175.71c-2.161,0-3.931-1.769-3.931-3.921v-0.018 C319.702,449.391,321.472,447.622,323.633,447.622" clip-rule="evenodd"/><path fill="#BCC2C6" fill-rule="evenodd" d="M323.633,467.4h152.836c2.161,0,3.93,1.769,3.93,3.938l0,0 c0,2.17-1.769,3.94-3.93,3.94H323.633c-2.161,0-3.931-1.771-3.931-3.94l0,0C319.702,469.169,321.472,467.4,323.633,467.4" clip-rule="evenodd"/><path fill="#BCC2C6" fill-rule="evenodd" d="M545.897,449.642l6.225,6.241l6.234-6.241 c1.527-1.518,4.021-1.518,5.558,0v0.017c1.535,1.52,1.535,4.022,0,5.558l-6.225,6.226l6.225,6.226c1.535,1.534,1.535,4.038,0,5.574 c-1.536,1.518-4.03,1.518-5.558,0l-6.234-6.226l-6.225,6.226c-1.534,1.518-4.03,1.518-5.566,0l0,0c-1.534-1.536-1.534-4.04,0-5.574 l6.226-6.226l-6.226-6.226c-1.534-1.535-1.534-4.038,0-5.558v-0.017C541.867,448.124,544.363,448.124,545.897,449.642" clip-rule="evenodd"/><path fill="#BCC2C6" d="M556.221,526.51h-44.628c-1.721,0-3.272,0.701-4.407,1.836s-1.837,2.687-1.837,4.407l0,0 c0,1.718,0.702,3.287,1.82,4.404l0.017,0.018c1.118,1.119,2.687,1.819,4.407,1.819h44.628c1.71,0,3.271-0.7,4.405-1.837 c1.135-1.135,1.836-2.687,1.836-4.404l0,0c0-1.721-0.701-3.289-1.836-4.407C559.499,527.211,557.938,526.51,556.221,526.51 M511.593,520.401h44.628c3.388,0,6.477,1.385,8.712,3.623l0.017,0.017c2.236,2.235,3.621,5.323,3.621,8.712l0,0 c0,3.404-1.385,6.492-3.621,8.728c-2.236,2.237-5.333,3.639-8.729,3.639h-44.628c-3.389,0-6.477-1.401-8.72-3.639h-0.01v-0.016 c-2.236-2.236-3.63-5.324-3.63-8.712l0,0c0-3.405,1.394-6.492,3.63-8.729C505.101,521.786,508.187,520.401,511.593,520.401z"/><path fill="#34495E" d="M509.165,515.345h44.626c3.389,0,6.483,1.386,8.722,3.621l0.008,0.018c2.237,2.236,3.631,5.324,3.631,8.712 v0.016c0,3.39-1.394,6.477-3.631,8.73c-2.237,2.236-5.333,3.621-8.729,3.621h-44.626c-3.389,0-6.469-1.385-8.723-3.621v-0.019 h-0.008c-2.245-2.253-3.629-5.339-3.629-8.712v-0.016c0-3.388,1.384-6.492,3.629-8.729 C502.67,516.73,505.768,515.345,509.165,515.345"/><path fill="#27CABF" d="M553.791,519.016c2.304,0,4.507,0.918,6.135,2.555c1.635,1.62,2.545,3.821,2.545,6.141 c0,2.304-0.919,4.49-2.545,6.126c-1.636,1.618-3.831,2.554-6.135,2.554h-44.626c-2.304,0-4.5-0.918-6.136-2.537l-0.008-0.017 c-1.626-1.636-2.536-3.839-2.536-6.142c0-2.304,0.918-4.489,2.544-6.125c1.636-1.637,3.832-2.555,6.136-2.555H553.791z"/><path fill="#51F4E9" d="M553.791,519.016c2.304,0,4.507,0.918,6.135,2.555c1.635,1.62,2.545,3.821,2.545,6.141 c0,0.586-0.059,1.17-0.175,1.737c-0.344-1.652-1.16-3.172-2.37-4.389c-1.628-1.637-3.831-2.539-6.135-2.539h-44.626 c-2.304,0-4.5,0.918-6.136,2.539c-1.209,1.217-2.027,2.736-2.368,4.389c-0.118-0.567-0.176-1.151-0.176-1.753 c0-2.304,0.918-4.489,2.544-6.125c1.636-1.637,3.832-2.555,6.136-2.555H553.791z"/><path fill="#BCC2C6" fill-rule="evenodd" d="M240.06,526.294h226.138c2.169,0,3.938,1.769,3.938,3.938 c0,2.169-1.769,3.938-3.938,3.938H240.06c-2.161,0-3.93-1.769-3.93-3.938C236.13,528.063,237.898,526.294,240.06,526.294" clip-rule="evenodd"/><path fill="#BCC2C6" fill-rule="evenodd" d="M543.869,381.698l5.058,5.057l11.448-11.449 c1.528-1.536,4.032-1.536,5.558,0h0.011c1.525,1.519,1.525,4.022,0,5.557L551.706,395.1l-0.075,0.067l-0.067,0.067l-0.074,0.066 l-0.074,0.067l-0.084,0.066l-0.084,0.05l-0.075,0.067l-0.076,0.05l0,0l-0.083,0.05l-0.084,0.05l0,0l-0.081,0.05l0,0l-0.084,0.05 h-0.009l-0.084,0.033l-0.092,0.05l0,0l-0.083,0.034l-0.084,0.034l0,0l-0.092,0.05h-0.008l-0.084,0.016l0,0l-0.091,0.034l0,0 l-0.093,0.033l0,0l-0.084,0.018l-0.008,0.016l-0.092,0.017l-0.091,0.017l0,0l-0.092,0.016l-0.093,0.018h-0.008l-0.084,0.017 l-0.101,0.016h-0.091v0.017h-0.092l0,0h-0.101l0,0l-0.084,0.016h-0.008h-0.092l-0.183-0.016h-0.009h-0.092l0,0l-0.184-0.017h-0.009 l-0.092-0.016l0,0c-0.125-0.017-0.251-0.034-0.367-0.067c-0.135-0.033-0.251-0.067-0.367-0.117l0,0l-0.092-0.016l-0.175-0.084l0,0 l-0.184-0.083l0,0l-0.083-0.033l0,0l-0.251-0.15l0,0l-0.166-0.1l-0.15-0.117h-0.008l-0.076-0.066l0,0l-0.076-0.067l-0.075-0.066 l-0.073-0.067l0,0l-0.076-0.067l0,0l0,0l-7.828-7.844c-1.535-1.519-1.535-4.022,0-5.557l0,0 C539.84,380.163,542.344,380.163,543.869,381.698" clip-rule="evenodd"/></g></svg>