<svg xmlns="http://www.w3.org/2000/svg" xmlns:xlink="http://www.w3.org/1999/xlink" id="Layer_1" width="800" height="800" x="0" y="0" enable-background="new 0 0 800 800" version="1.0" viewBox="191.081 191.994 421.454 378.32" xml:space="preserve"><g><path fill="#BCC2C6" d="M205.167,239.515H598.44c3.889,0,7.41,1.578,9.963,4.13c2.545,2.554,4.131,6.075,4.131,9.956v302.629 c0,3.888-1.586,7.409-4.131,9.946c-2.553,2.552-6.074,4.138-9.963,4.138H205.167c-3.889,0-7.41-1.586-9.955-4.138 c-2.554-2.537-4.131-6.059-4.131-9.946V253.601c0-3.88,1.577-7.402,4.131-9.956C197.757,241.092,201.278,239.515,205.167,239.515"/><path fill="#FFF" fill-rule="evenodd" d="M205.167,245.397c-2.188,0-4.258,0.876-5.793,2.412 c-1.542,1.544-2.419,3.613-2.419,5.792v302.629c0,2.169,0.877,4.256,2.419,5.791c1.535,1.533,3.605,2.402,5.793,2.402H598.44 c2.186,0,4.256-0.869,5.791-2.402c1.543-1.535,2.411-3.605,2.411-5.791V253.601c0-2.187-0.868-4.248-2.411-5.792 c-1.535-1.543-3.605-2.412-5.791-2.412H205.167z" clip-rule="evenodd"/><path fill="#BCC2C6" fill-rule="evenodd" d="M448.976,420.052c16.563,0,29.988,13.434,29.988,29.99 c0,16.572-13.426,30.006-29.988,30.006c-16.572,0-30.001-13.434-30.001-30.006C418.975,433.485,432.403,420.052,448.976,420.052" clip-rule="evenodd"/><path fill="#EBEFF0" fill-rule="evenodd" d="M448.976,425.942c13.316,0,24.115,10.781,24.115,24.1 c0,13.316-10.799,24.113-24.115,24.113c-13.318,0-24.116-10.797-24.116-24.113C424.859,436.724,435.657,425.942,448.976,425.942" clip-rule="evenodd"/><path fill="#BCC2C6" fill-rule="evenodd" d="M434.896,440.813v18.458c0,1.886,1.261,3.554,2.871,4.321 c0.526,0.252,1.228,0.519,1.962,0.519h18.356c1.353,0,2.821-0.869,3.505-1.587c0.769-0.783,1.453-2.118,1.453-3.621v-17.706 c0-2.904-2.438-5.207-4.958-5.207h-18.356c-0.727,0-1.385,0.25-1.869,0.467c-0.451,0.219-1.185,0.668-1.503,0.986 C435.582,438.226,434.896,439.661,434.896,440.813 M458.204,444.9c-0.993,0-3.473,0.168-3.906-0.184 c-0.533-0.434-0.301-2.537-0.301-3.771c0-1.386,1.852-1.002,3.965-1.002c1.393,0,0.992,1.853,0.992,3.973 C458.954,444.367,458.612,444.9,458.204,444.9z M440.849,449.74c0,9.095,11.613,11.248,15.219,4.039 c1.051-2.103,0.9-2.57,0.9-4.906h3.105v9.779c0,1.202-0.775,2.471-1.869,2.471h-18.342c-1.294,0-2.111-1.151-2.111-2.471v-9.779 h3.221C440.938,449.257,440.849,449.307,440.849,449.74z M444.318,450.358c0-1.485,0.333-2.638,1.335-3.639 c2.896-2.887,7.844-0.65,7.844,2.889v0.866c0,3.555-4.948,5.792-7.844,2.888C445.052,452.763,444.318,451.493,444.318,450.358z" clip-rule="evenodd"/><path fill="#BCC2C6" fill-rule="evenodd" d="M354.632,420.052c16.572,0,29.999,13.434,29.999,29.99 c0,16.572-13.427,30.006-29.999,30.006c-16.563,0-29.99-13.434-29.99-30.006C324.642,433.485,338.068,420.052,354.632,420.052" clip-rule="evenodd"/><path fill="#EBEFF0" fill-rule="evenodd" d="M354.632,425.942c13.317,0,24.115,10.781,24.115,24.1 c0,13.316-10.798,24.113-24.115,24.113c-13.318,0-24.107-10.797-24.107-24.113C330.524,436.724,341.313,425.942,354.632,425.942" clip-rule="evenodd"/><path fill="#BCC2C6" fill-rule="evenodd" d="M341.181,443.782V456.3c0,0.901,0.769,2.136,1.269,2.57 c0.734,0.617,1.535,1.017,2.821,1.017h18.725c1.234,0,2.136-0.434,2.818-1.017c0.479-0.401,1.277-1.736,1.277-2.57v-12.518 c0-0.817-0.799-2.153-1.277-2.553c-0.683-0.601-1.584-1.034-2.818-1.034h-18.725c-1.286,0-2.087,0.417-2.821,1.034 C341.949,441.646,341.181,442.881,341.181,443.782 M350.235,455.065v-10.03l8.678,5.073 C358.47,450.208,351.395,454.447,350.235,455.065z" clip-rule="evenodd"/><path fill="#BCC2C6" fill-rule="evenodd" d="M354.79,329.798c16.564,0,29.998,13.434,29.998,29.99 c0,16.572-13.434,30.006-29.998,30.006c-16.563,0-29.997-13.434-29.997-30.006C324.793,343.232,338.228,329.798,354.79,329.798" clip-rule="evenodd"/><path fill="#EBEFF0" fill-rule="evenodd" d="M354.79,335.672c13.318,0,24.116,10.797,24.116,24.116 c0,13.317-10.798,24.115-24.116,24.115c-13.309,0-24.106-10.797-24.106-24.115C330.684,346.47,341.481,335.672,354.79,335.672" clip-rule="evenodd"/><path fill="#BCC2C6" fill-rule="evenodd" d="M354.356,353.529c0,0.618,0.126,0.751,0.126,1.485 c-1.118-0.033-2.938-0.451-4.072-0.768c-2.404-0.685-4.481-1.819-6.384-3.404c-0.541-0.451-0.802-0.701-1.293-1.185 c-0.676-0.667-0.686-1.051-1.27-1.202c-0.4,1.719-1.986,4.022,0.543,7.243c0.309,0.384,0.568,0.55,0.818,0.918 c-0.901-0.017-1.494-0.551-2.228-0.617c0,1.585,0.634,3.054,1.284,4.038c0.65,1.001,1.652,1.736,2.688,2.27 c0.023,0.017,0.057,0.033,0.082,0.05l0.158,0.083c-2.094,0.317-1.074,0.034-2.109,0c0.149,1.686,2.936,4.389,5.207,4.59 c-1.026,1.536-5.324,2.954-8.43,2.219c0.477,0.718,3.689,1.919,4.607,2.22c5.156,1.719,10.563,1.302,15.213-1.485 c5.323-3.221,8.084-9.179,8.084-16.338c0.618-0.167,1.17-1.034,1.57-1.518c0.25-0.317,0.383-0.535,0.607-0.885 c0.243-0.351,0.51-0.601,0.543-1.051c-0.559,0.284-1.635,0.734-2.47,0.734c0.375-0.567,1.743-2.02,1.852-3.337 c-0.083,0.016-3.302,1.618-4.229,1.134c-0.51-0.267-1.785-1.636-4.08-1.636c-2.045,0-3.89,0.334-5.141,1.919 c-0.533,0.685-0.852,1.102-1.168,1.937C354.641,351.526,354.356,352.745,354.356,353.529" clip-rule="evenodd"/><path fill="#BCC2C6" fill-rule="evenodd" d="M448.815,329.798c16.564,0,29.998,13.434,29.998,29.99 c0,16.572-13.434,30.006-29.998,30.006c-16.563,0-29.998-13.434-29.998-30.006C418.817,343.232,432.252,329.798,448.815,329.798" clip-rule="evenodd"/><path fill="#EBEFF0" fill-rule="evenodd" d="M448.815,335.672c13.309,0,24.107,10.797,24.107,24.116 c0,13.317-10.799,24.115-24.107,24.115c-13.316,0-24.115-10.797-24.115-24.115C424.7,346.47,435.499,335.672,448.815,335.672" clip-rule="evenodd"/><path fill="#BCC2C6" fill-rule="evenodd" d="M444.844,353.195v3.588h-2.845v4.589h2.845v12.5h5.831v-12.5 h4.959v-4.223c0-0.283-0.085-0.367-0.367-0.367h-4.592c0-3.905-0.791-5.207,4.959-5.207v-5.44c0-0.618-1.053-0.384-2.729-0.384 C448.224,345.752,444.844,348.439,444.844,353.195" clip-rule="evenodd"/></g></svg>