<svg xmlns="http://www.w3.org/2000/svg" xmlns:xlink="http://www.w3.org/1999/xlink" id="Layer_1" width="800" height="800" x="0" y="0" enable-background="new 0 0 800 800" version="1.0" viewBox="202.41 191.994 421.454 378.329" xml:space="preserve"><g><path fill="#BCC2C6" d="M216.494,239.515h393.274c3.889,0,7.41,1.586,9.963,4.13c2.546,2.554,4.132,6.075,4.132,9.956v302.637 c0,3.88-1.586,7.401-4.132,9.947c-2.553,2.552-6.074,4.138-9.963,4.138H216.494c-3.889,0-7.409-1.586-9.955-4.138 c-2.552-2.546-4.129-6.067-4.129-9.947V253.601c0-3.88,1.577-7.402,4.129-9.956C209.085,241.101,212.605,239.515,216.494,239.515"/><path fill="#FFF" fill-rule="evenodd" d="M216.494,245.397c-2.186,0-4.255,0.868-5.79,2.412 c-1.543,1.544-2.42,3.613-2.42,5.792v302.637c0,2.178,0.877,4.248,2.42,5.79c1.535,1.535,3.604,2.412,5.79,2.412h393.274 c2.187,0,4.255-0.877,5.79-2.412c1.545-1.542,2.414-3.604,2.414-5.79V253.601c0-2.187-0.869-4.248-2.414-5.792 c-1.535-1.543-3.604-2.412-5.79-2.412H216.494z" clip-rule="evenodd"/><rect width="266.873" height="5.883" x="279.695" y="326.856" fill="#34495E" fill-rule="evenodd" clip-rule="evenodd"/><rect width="41.297" height="41.305" x="279.687" y="309.149" fill="#34495E" fill-rule="evenodd" clip-rule="evenodd"/><rect width="29.531" height="29.523" x="285.57" y="315.04" fill="#22A6EF"/><rect width="41.306" height="41.305" x="392.479" y="309.149" fill="#34495E" fill-rule="evenodd" clip-rule="evenodd"/><rect width="29.53" height="29.523" x="398.362" y="315.04" fill="#22A6EF"/><rect width="41.297" height="41.305" x="505.271" y="309.149" fill="#34495E" fill-rule="evenodd" clip-rule="evenodd"/><rect width="29.54" height="29.523" x="511.153" y="315.04" fill="#22A6EF"/><path fill="#BCC2C6" fill-rule="evenodd" d="M267.947,380.669h64.787c1.992,0,3.62,1.627,3.62,3.613 c0,1.994-1.628,3.621-3.62,3.621h-64.787c-1.995,0-3.622-1.627-3.622-3.621C264.325,382.296,265.952,380.669,267.947,380.669" clip-rule="evenodd"/><path fill="#BCC2C6" fill-rule="evenodd" d="M272.436,398.853h55.808c1.994,0,3.622,1.619,3.622,3.612l0,0 c0,1.994-1.628,3.622-3.622,3.622h-55.808c-1.994,0-3.621-1.628-3.621-3.622l0,0C268.814,400.471,270.441,398.853,272.436,398.853" clip-rule="evenodd"/><path fill="#BCC2C6" fill-rule="evenodd" d="M380.73,380.669h64.803c1.986,0,3.613,1.627,3.613,3.613 c0,1.994-1.627,3.621-3.613,3.621H380.73c-1.985,0-3.613-1.627-3.613-3.621C377.117,382.296,378.745,380.669,380.73,380.669" clip-rule="evenodd"/><path fill="#BCC2C6" fill-rule="evenodd" d="M385.22,398.853h55.825c1.985,0,3.612,1.619,3.612,3.612l0,0 c0,1.994-1.627,3.622-3.612,3.622H385.22c-1.985,0-3.613-1.628-3.613-3.622l0,0C381.606,400.471,383.234,398.853,385.22,398.853" clip-rule="evenodd"/><path fill="#BCC2C6" fill-rule="evenodd" d="M493.53,380.669h64.787c1.993,0,3.621,1.627,3.621,3.613 c0,1.994-1.628,3.621-3.621,3.621H493.53c-1.994,0-3.622-1.627-3.622-3.621C489.908,382.296,491.536,380.669,493.53,380.669" clip-rule="evenodd"/><path fill="#BCC2C6" fill-rule="evenodd" d="M498.012,398.853h55.816c1.994,0,3.621,1.619,3.621,3.612l0,0 c0,1.994-1.627,3.622-3.621,3.622h-55.816c-1.986,0-3.612-1.628-3.612-3.622l0,0C494.399,400.471,496.025,398.853,498.012,398.853" clip-rule="evenodd"/><path fill="#BCC2C6" fill-rule="evenodd" d="M268.264,484.29h289.744c2.161,0,3.931,1.771,3.931,3.94l0,0 c0,2.169-1.77,3.938-3.931,3.938H268.264c-2.17,0-3.938-1.769-3.938-3.938l0,0C264.325,486.061,266.094,484.29,268.264,484.29" clip-rule="evenodd"/><path fill="#BCC2C6" fill-rule="evenodd" d="M268.264,504.075h289.744c2.161,0,3.931,1.77,3.931,3.931v0.009 c0,2.161-1.77,3.93-3.931,3.93H268.264c-2.17,0-3.938-1.769-3.938-3.93v-0.009C264.325,505.845,266.094,504.075,268.264,504.075" clip-rule="evenodd"/><path fill="#BCC2C6" fill-rule="evenodd" d="M268.264,464.514h140.938c2.162,0,3.923,1.771,3.923,3.932v0.009 c0,2.16-1.761,3.929-3.923,3.929H268.264c-2.17,0-3.938-1.769-3.938-3.929v-0.009C264.325,466.284,266.094,464.514,268.264,464.514" clip-rule="evenodd"/></g></svg>