<svg xmlns="http://www.w3.org/2000/svg" xmlns:xlink="http://www.w3.org/1999/xlink" id="Layer_1" width="800" height="800" x="0" y="0" enable-background="new 0 0 800 800" version="1.0" viewBox="191.974 200.414 421.483 378.354" xml:space="preserve"><g><path fill="#BCC2C6" d="M206.061,247.947h393.309c3.881,0,7.402,1.569,9.948,4.123c2.553,2.553,4.139,6.075,4.139,9.964v302.646 c0,3.873-1.586,7.395-4.139,9.948c-2.546,2.553-6.067,4.14-9.948,4.14H206.061c-3.88,0-7.402-1.587-9.948-4.14 c-2.552-2.554-4.138-6.075-4.138-9.948V262.033c0-3.889,1.586-7.411,4.138-9.964C198.658,249.516,202.181,247.947,206.061,247.947"/><path fill="#FFF" fill-rule="evenodd" d="M206.061,253.822c-2.179,0-4.247,0.867-5.784,2.42 c-1.543,1.535-2.411,3.605-2.411,5.792v302.646c0,2.171,0.868,4.24,2.411,5.792c1.537,1.536,3.605,2.404,5.784,2.404h393.309 c2.179,0,4.248-0.868,5.792-2.404c1.535-1.552,2.404-3.621,2.404-5.792V262.033c0-2.187-0.869-4.256-2.404-5.792 c-1.544-1.553-3.613-2.42-5.792-2.42H206.061z" clip-rule="evenodd"/><path fill="#34495E" fill-rule="evenodd" d="M238.839,536.992h327.752c4.531,0,8.236-3.704,8.236-8.245 V382.933c0-4.54-3.713-8.245-8.236-8.245H238.839c-4.531,0-8.245,3.705-8.245,8.245v145.814 C230.594,533.288,234.308,536.992,238.839,536.992" clip-rule="evenodd"/><path fill="#22A6EF" d="M238.839,380.346h327.752c1.42,0,2.578,1.168,2.578,2.57v145.831c0,1.419-1.168,2.586-2.578,2.586H238.839 c-1.41,0-2.579-1.167-2.579-2.586V382.917C236.26,381.514,237.42,380.346,238.839,380.346"/><path fill="#34495E" fill-rule="evenodd" d="M318.208,410.771h169.015c2.745,0,4.982,2.237,4.982,4.975v15.288 c0,2.737-2.245,4.973-4.982,4.973H318.208c-2.739,0-4.983-2.235-4.983-4.973v-15.288 C313.225,413.008,315.461,410.771,318.208,410.771" clip-rule="evenodd"/><rect width="167.208" height="13.451" x="319.115" y="416.663" fill="#FFF" fill-rule="evenodd" clip-rule="evenodd"/><path fill="#34495E" fill-rule="evenodd" d="M346.863,457.019h111.704c2.169,0,3.938,1.771,3.938,3.938l0,0 c0,2.171-1.77,3.921-3.938,3.921H346.863c-2.169,0-3.94-1.75-3.94-3.921l0,0C342.923,458.789,344.694,457.019,346.863,457.019" clip-rule="evenodd"/><path fill="#1C8DCB" d="M426.239,494.049h-44.621c-1.718,0-3.278,0.7-4.412,1.837c-1.138,1.134-1.837,2.687-1.837,4.405l0,0 c0,1.719,0.699,3.288,1.828,4.406l0.009,0.017c1.126,1.117,2.687,1.819,4.412,1.819h44.621c1.719,0,3.279-0.702,4.414-1.836 c1.127-1.134,1.826-2.688,1.826-4.406l0,0c0-1.719-0.699-3.288-1.826-4.423C429.527,494.749,427.958,494.049,426.239,494.049 M381.618,487.924h44.621c3.396,0,6.483,1.401,8.719,3.638l0.01,0.018c2.246,2.235,3.629,5.324,3.629,8.712l0,0 c0,3.404-1.383,6.492-3.629,8.729c-2.237,2.236-5.323,3.621-8.729,3.621h-44.621c-3.395,0-6.475-1.385-8.72-3.621h-0.008 l-0.009-0.019c-2.235-2.235-3.621-5.322-3.621-8.711l0,0c0-3.404,1.386-6.492,3.621-8.729 C375.118,489.325,378.214,487.924,381.618,487.924z"/><path fill="#34495E" d="M379.19,482.883h44.62c3.396,0,6.484,1.386,8.72,3.621l0.018,0.019c2.236,2.236,3.629,5.323,3.629,8.712 c0,3.403-1.393,6.492-3.629,8.729c-2.236,2.253-5.331,3.638-8.737,3.638h-44.62c-3.387,0-6.475-1.385-8.72-3.638h-0.009l0,0 c-2.246-2.252-3.629-5.342-3.629-8.729c0-3.389,1.383-6.492,3.629-8.73C372.698,484.269,375.786,482.883,379.19,482.883"/><path fill="#27CABF" d="M423.811,486.555c2.312,0,4.515,0.918,6.142,2.555c1.628,1.618,2.546,3.821,2.546,6.125 s-0.926,4.505-2.554,6.142c-1.627,1.617-3.822,2.554-6.134,2.554h-44.62c-2.304,0-4.506-0.918-6.133-2.538l-0.008-0.016 c-1.629-1.637-2.546-3.838-2.546-6.142s0.925-4.507,2.554-6.125c1.627-1.637,3.821-2.555,6.133-2.555H423.811z"/><path fill="#51F4E9" d="M423.811,486.555c2.312,0,4.515,0.918,6.142,2.555c1.628,1.618,2.546,3.821,2.546,6.125 c0,0.6-0.066,1.185-0.175,1.753c-0.343-1.652-1.161-3.173-2.371-4.391c-1.627-1.635-3.83-2.537-6.142-2.537h-44.62 c-2.312,0-4.506,0.919-6.133,2.537c-1.21,1.218-2.027,2.738-2.371,4.391c-0.116-0.568-0.183-1.153-0.183-1.753 c0-2.304,0.925-4.507,2.554-6.125c1.627-1.637,3.821-2.555,6.133-2.555H423.811z"/><path fill="#BCC2C6" fill-rule="evenodd" d="M291.444,308.113h222.548c2.163,0,3.933,1.77,3.933,3.939l0,0 c0,2.169-1.77,3.939-3.933,3.939H291.444c-2.17,0-3.938-1.77-3.938-3.939l0,0C287.506,309.882,289.274,308.113,291.444,308.113" clip-rule="evenodd"/><path fill="#BCC2C6" fill-rule="evenodd" d="M305.798,327.891h193.834c2.17,0,3.938,1.769,3.938,3.938l0,0 c0,2.17-1.769,3.939-3.938,3.939H305.798c-2.162,0-3.939-1.769-3.939-3.939l0,0C301.858,329.66,303.636,327.891,305.798,327.891" clip-rule="evenodd"/></g></svg>