<svg xmlns="http://www.w3.org/2000/svg" xmlns:xlink="http://www.w3.org/1999/xlink" id="Layer_1" width="800" height="800" x="0" y="0" enable-background="new 0 0 800 800" version="1.0" viewBox="207.304 200.414 421.484 378.354" xml:space="preserve"><g><path fill="#BCC2C6" d="M221.392,247.947h393.31c3.88,0,7.401,1.585,9.946,4.123c2.555,2.553,4.14,6.075,4.14,9.964v302.646 c0,3.873-1.585,7.395-4.14,9.948c-2.545,2.553-6.066,4.14-9.946,4.14h-393.31c-3.871,0-7.401-1.587-9.946-4.14 c-2.554-2.554-4.141-6.075-4.141-9.948V262.033c0-3.889,1.587-7.411,4.141-9.964C213.99,249.532,217.521,247.947,221.392,247.947"/><path fill="#FFF" fill-rule="evenodd" d="M221.392,253.822c-2.178,0-4.247,0.884-5.791,2.42 c-1.534,1.535-2.412,3.605-2.412,5.792v302.646c0,2.171,0.878,4.24,2.412,5.792c1.544,1.536,3.613,2.404,5.791,2.404h393.31 c2.18,0,4.249-0.868,5.782-2.404c1.545-1.552,2.413-3.604,2.413-5.792V262.033c0-2.187-0.868-4.256-2.413-5.792 c-1.533-1.553-3.613-2.42-5.782-2.42H221.392z" clip-rule="evenodd"/><path fill="#BCC2C6" fill-rule="evenodd" d="M254.17,536.992h327.753c4.531,0,8.236-3.704,8.236-8.228V382.933 c0-4.54-3.705-8.245-8.236-8.245H254.17c-4.53,0-8.243,3.705-8.243,8.245v145.832C245.927,533.288,249.632,536.992,254.17,536.992" clip-rule="evenodd"/><path fill="#EBEFF0" d="M254.17,380.346h327.753c1.418,0,2.578,1.168,2.578,2.586v145.814c0,1.419-1.168,2.586-2.578,2.586H254.17 c-1.411,0-2.577-1.167-2.577-2.586V382.933C251.593,381.514,252.751,380.346,254.17,380.346"/><path fill="#BCC2C6" fill-rule="evenodd" d="M524.302,499.423h-52.714v-29.737h52.714l14.869,14.866 L524.302,499.423z M427.859,499.423h-38.168v-29.737h38.168l14.87,14.866L427.859,499.423z M357.196,499.423h-52.707v-29.737 h52.707l14.878,14.866L357.196,499.423z M524.302,450.393h-38.178v-29.757h38.178l14.869,14.887L524.302,450.393z M441.587,450.393 h-52.714v-29.757h52.714l14.872,14.887L441.587,450.393z M342.659,450.393h-38.17v-29.757h38.17l14.87,14.887L342.659,450.393z" clip-rule="evenodd"/><path fill="#BCC2C6" fill-rule="evenodd" d="M306.774,308.113h222.541c2.17,0,3.94,1.77,3.94,3.939l0,0 c0,2.169-1.771,3.939-3.94,3.939H306.774c-2.168,0-3.938-1.77-3.938-3.939l0,0C302.837,309.882,304.606,308.113,306.774,308.113" clip-rule="evenodd"/><path fill="#BCC2C6" fill-rule="evenodd" d="M321.131,327.891h193.833c2.171,0,3.938,1.769,3.938,3.938 c0,2.17-1.767,3.939-3.938,3.939H321.131c-2.171,0-3.94-1.769-3.94-3.939C317.19,329.66,318.96,327.891,321.131,327.891" clip-rule="evenodd"/><path fill="#34495E" fill-rule="evenodd" d="M520.513,495.234h-52.706v-29.737h52.706l14.879,14.87 L520.513,495.234z M424.071,495.234h-38.168v-29.737h38.168l14.879,14.87L424.071,495.234z M353.416,495.234h-52.714v-29.737 h52.714l14.87,14.87L353.416,495.234z M520.513,446.203h-38.169v-29.756h38.169l14.879,14.869L520.513,446.203z M437.8,446.203 h-52.716v-29.756H437.8l14.878,14.869L437.8,446.203z M338.87,446.203h-38.168v-29.756h38.168l14.881,14.869L338.87,446.203z" clip-rule="evenodd"/><polygon fill="#22A6EF" fill-rule="evenodd" points="336.526 440.529 306.368 440.529 306.368 422.121 336.526 422.121 345.737 431.316" clip-rule="evenodd"/><polygon fill="#22A6EF" fill-rule="evenodd" points="435.454 440.529 390.75 440.529 390.75 422.121 435.454 422.121 444.667 431.316" clip-rule="evenodd"/><polygon fill="#22A6EF" fill-rule="evenodd" points="518.168 440.529 488.009 440.529 488.009 422.121 518.168 422.121 527.38 431.316" clip-rule="evenodd"/><polygon fill="#22A6EF" fill-rule="evenodd" points="351.071 489.558 306.368 489.558 306.368 471.154 351.071 471.154 360.274 480.367" clip-rule="evenodd"/><polygon fill="#22A6EF" fill-rule="evenodd" points="421.727 489.558 391.569 489.558 391.569 471.154 421.727 471.154 430.938 480.367" clip-rule="evenodd"/><polygon fill="#22A6EF" fill-rule="evenodd" points="518.168 489.558 473.464 489.558 473.464 471.154 518.168 471.154 527.38 480.367" clip-rule="evenodd"/></g></svg>