<svg xmlns="http://www.w3.org/2000/svg" xmlns:xlink="http://www.w3.org/1999/xlink" id="Layer_1" width="800" height="800" x="0" y="0" enable-background="new 0 0 800 800" version="1.0" viewBox="198.126 200.414 421.474 378.354" xml:space="preserve"><g><path fill="#BCC2C6" d="M212.213,247.947h393.309c3.881,0,7.402,1.569,9.949,4.123c2.552,2.553,4.129,6.075,4.129,9.964v302.646 c0,3.873-1.577,7.395-4.129,9.948c-2.547,2.553-6.068,4.14-9.949,4.14H212.213c-3.881,0-7.401-1.587-9.948-4.14 c-2.552-2.554-4.138-6.075-4.138-9.948V262.033c0-3.889,1.586-7.411,4.138-9.964C204.812,249.516,208.332,247.947,212.213,247.947"/><path fill="#FFF" fill-rule="evenodd" d="M212.213,253.822c-2.179,0-4.247,0.867-5.783,2.42 c-1.543,1.535-2.412,3.605-2.412,5.792v302.646c0,2.171,0.869,4.24,2.412,5.792c1.536,1.536,3.604,2.404,5.783,2.404h393.309 c2.18,0,4.248-0.868,5.784-2.404c1.543-1.552,2.412-3.621,2.412-5.792V262.033c0-2.187-0.869-4.256-2.412-5.792 c-1.536-1.553-3.604-2.42-5.784-2.42H212.213z" clip-rule="evenodd"/><rect width="69.097" height="69.095" x="246.909" y="299.318" fill="#34495E" fill-rule="evenodd" clip-rule="evenodd"/><rect width="57.762" height="57.763" x="252.578" y="304.975" fill="#22A6EF"/><path fill="#34495E" fill-rule="evenodd" d="M281.46,336.77c14.051,0,25.441,11.399,25.441,25.451v0.517 h-50.886l-0.009-0.517C256.007,348.168,267.405,336.77,281.46,336.77" clip-rule="evenodd"/><path fill="#34495E" fill-rule="evenodd" d="M281.46,314.422c7.918,0,14.342,6.409,14.342,14.337 c0,7.927-6.424,14.353-14.342,14.353c-7.929,0-14.346-6.426-14.346-14.353C267.114,320.831,273.531,314.422,281.46,314.422" clip-rule="evenodd"/><path fill="#39D4FF" fill-rule="evenodd" d="M281.46,320.08c4.788,0,8.677,3.889,8.677,8.679 c0,4.789-3.889,8.678-8.677,8.678c-4.792,0-8.68-3.889-8.68-8.678C272.78,323.968,276.668,320.08,281.46,320.08" clip-rule="evenodd"/><path fill="#39D4FF" fill-rule="evenodd" d="M281.46,342.444c10.921,0,19.775,8.862,19.775,19.777v0.517 h-39.554l-0.009-0.517C261.673,351.306,270.534,342.444,281.46,342.444" clip-rule="evenodd"/><path fill="#BCC2C6" fill-rule="evenodd" d="M249.881,415.161h63.154c2.17,0,3.931-1.769,3.931-3.939l0,0 c0-2.169-1.761-3.938-3.931-3.938h-63.154c-2.17,0-3.938,1.77-3.938,3.938l0,0C245.943,413.393,247.711,415.161,249.881,415.161" clip-rule="evenodd"/><path fill="#BCC2C6" fill-rule="evenodd" d="M261.856,434.838h39.204c2.161,0,3.931-1.77,3.931-3.921l0,0 c0-2.172-1.77-3.94-3.931-3.94h-39.204c-2.163,0-3.939,1.769-3.939,3.94l0,0C257.917,433.068,259.693,434.838,261.856,434.838" clip-rule="evenodd"/><path fill="#BCC2C6" fill-rule="evenodd" d="M249.881,395.467h63.154c2.17,0,3.931-1.769,3.931-3.938 c0-2.152-1.761-3.922-3.931-3.922h-63.154c-2.17,0-3.938,1.77-3.938,3.922C245.943,393.698,247.711,395.467,249.881,395.467" clip-rule="evenodd"/><path fill="#BCC2C6" d="M304.982,479.599h-44.619c-1.721,0-3.281,0.718-4.415,1.837c-1.135,1.135-1.835,2.699-1.835,4.418 c0,1.72,0.7,3.271,1.826,4.406h0.009c1.126,1.135,2.687,1.837,4.415,1.837h44.619c1.711,0,3.279-0.702,4.406-1.837 c1.135-1.135,1.836-2.703,1.836-4.406c0-1.719-0.701-3.283-1.828-4.418C308.262,480.316,306.701,479.599,304.982,479.599 M260.363,473.491h44.619c3.396,0,6.485,1.385,8.721,3.622l0.008,0.018c2.245,2.235,3.631,5.323,3.631,8.723 c0,3.405-1.386,6.492-3.631,8.729c-2.236,2.237-5.324,3.622-8.729,3.622h-44.619c-3.396,0-6.484-1.385-8.723-3.622l-0.007-0.018 h-0.009c-2.236-2.236-3.629-5.324-3.629-8.712c0-3.399,1.393-6.487,3.629-8.74C253.861,474.876,256.958,473.491,260.363,473.491z"/><path fill="#34495E" d="M257.933,468.435h44.622c3.396,0,6.482,1.401,8.72,3.638l0.009,0.016c2.245,2.237,3.631,5.326,3.631,8.712 c0,3.403-1.386,6.49-3.631,8.726c-2.236,2.236-5.324,3.622-8.729,3.622h-44.622c-3.386,0-6.475-1.386-8.72-3.622h-0.008 l-0.008-0.016c-2.236-2.237-3.621-5.325-3.621-8.71c0-3.402,1.385-6.49,3.621-8.728C251.44,469.836,254.53,468.435,257.933,468.435"/><path fill="#27CABF" d="M302.555,472.123c2.311,0,4.514,0.918,6.143,2.536c1.627,1.636,2.544,3.84,2.544,6.141 s-0.927,4.503-2.554,6.122c-1.627,1.637-3.822,2.555-6.133,2.555h-44.622c-2.301,0-4.505-0.901-6.133-2.537l-0.007-0.018 c-1.637-1.619-2.545-3.821-2.545-6.122s0.926-4.505,2.552-6.124c1.628-1.635,3.822-2.553,6.133-2.553H302.555z"/><path fill="#51F4E9" d="M302.555,472.123c2.311,0,4.514,0.918,6.143,2.536c1.627,1.636,2.544,3.84,2.544,6.141 c0,0.586-0.067,1.17-0.184,1.736c-0.335-1.636-1.15-3.17-2.36-4.371c-1.629-1.636-3.832-2.555-6.143-2.555h-44.622 c-2.311,0-4.505,0.919-6.133,2.555c-1.21,1.218-2.027,2.735-2.368,4.389c-0.118-0.567-0.184-1.151-0.184-1.754 c0-2.301,0.926-4.505,2.552-6.124c1.628-1.635,3.822-2.553,6.133-2.553H302.555z"/><rect width="69.094" height="69.095" x="374.32" y="299.318" fill="#34495E" fill-rule="evenodd" clip-rule="evenodd"/><rect width="57.764" height="57.763" x="379.985" y="304.975" fill="#22A6EF"/><path fill="#34495E" fill-rule="evenodd" d="M408.867,336.77c14.054,0,25.444,11.399,25.444,25.451v0.517 h-50.888l-0.008-0.517C383.416,348.168,394.814,336.77,408.867,336.77" clip-rule="evenodd"/><path fill="#34495E" fill-rule="evenodd" d="M408.867,314.422c7.921,0,14.346,6.409,14.346,14.337 c0,7.927-6.425,14.353-14.346,14.353c-7.927,0-14.346-6.426-14.346-14.353C394.521,320.831,400.94,314.422,408.867,314.422" clip-rule="evenodd"/><path fill="#39D4FF" fill-rule="evenodd" d="M408.867,320.08c4.791,0,8.68,3.889,8.68,8.679 c0,4.789-3.889,8.678-8.68,8.678c-4.79,0-8.68-3.889-8.68-8.678C400.188,323.968,404.077,320.08,408.867,320.08" clip-rule="evenodd"/><path fill="#39D4FF" fill-rule="evenodd" d="M408.867,342.444c10.924,0,19.777,8.862,19.777,19.777v0.517 h-39.554v-0.517C389.091,351.306,397.944,342.444,408.867,342.444" clip-rule="evenodd"/><path fill="#BCC2C6" fill-rule="evenodd" d="M377.29,415.161h63.155c2.168,0,3.938-1.769,3.938-3.939l0,0 c0-2.169-1.77-3.938-3.938-3.938H377.29c-2.169,0-3.938,1.77-3.938,3.938l0,0C373.353,413.393,375.121,415.161,377.29,415.161" clip-rule="evenodd"/><path fill="#BCC2C6" fill-rule="evenodd" d="M389.266,434.838h39.204c2.161,0,3.931-1.77,3.931-3.921l0,0 c0-2.172-1.77-3.94-3.931-3.94h-39.204c-2.161,0-3.939,1.769-3.939,3.94l0,0C385.326,433.068,387.104,434.838,389.266,434.838" clip-rule="evenodd"/><path fill="#BCC2C6" fill-rule="evenodd" d="M377.29,395.467h63.155c2.168,0,3.938-1.769,3.938-3.938 c0-2.152-1.77-3.922-3.938-3.922H377.29c-2.169,0-3.938,1.77-3.938,3.922C373.353,393.698,375.121,395.467,377.29,395.467" clip-rule="evenodd"/><path fill="#BCC2C6" d="M432.391,479.599h-44.619c-1.719,0-3.279,0.718-4.414,1.837c-1.126,1.135-1.836,2.699-1.836,4.418 c0,1.72,0.701,3.271,1.828,4.406h0.008c1.127,1.135,2.688,1.837,4.414,1.837h44.619c1.721,0,3.28-0.702,4.407-1.837 c1.135-1.135,1.844-2.703,1.844-4.406c0-1.719-0.709-3.283-1.835-4.418C435.671,480.316,434.111,479.599,432.391,479.599 M387.771,473.491h44.619c3.397,0,6.486,1.385,8.722,3.622l0.008,0.018c2.246,2.235,3.63,5.323,3.63,8.723 c0,3.405-1.384,6.492-3.63,8.729c-2.237,2.237-5.323,3.622-8.729,3.622h-44.619c-3.387,0-6.484-1.385-8.721-3.622l-0.008-0.018 h-0.008c-2.236-2.236-3.63-5.324-3.63-8.712c0-3.399,1.394-6.487,3.63-8.74C381.271,474.876,384.366,473.491,387.771,473.491z"/><path fill="#34495E" d="M385.344,468.435h44.619c3.396,0,6.484,1.401,8.721,3.638l0.017,0.016c2.235,2.237,3.621,5.326,3.621,8.712 c0,3.403-1.386,6.49-3.621,8.726c-2.245,2.236-5.331,3.622-8.737,3.622h-44.619c-3.388,0-6.476-1.386-8.721-3.622h-0.008 l-0.008-0.016c-2.236-2.237-3.622-5.325-3.622-8.71c0-3.402,1.386-6.49,3.622-8.728 C378.852,469.836,381.938,468.435,385.344,468.435"/><path fill="#27CABF" d="M429.963,472.123c2.313,0,4.515,0.918,6.143,2.536c1.627,1.636,2.545,3.84,2.545,6.141 s-0.926,4.503-2.555,6.122c-1.625,1.637-3.819,2.555-6.133,2.555h-44.619c-2.304,0-4.507-0.901-6.133-2.537l-0.01-0.018 c-1.636-1.619-2.537-3.821-2.537-6.122s0.919-4.505,2.547-6.124c1.626-1.635,3.82-2.553,6.133-2.553H429.963z"/><path fill="#51F4E9" d="M429.963,472.123c2.313,0,4.515,0.918,6.143,2.536c1.627,1.636,2.545,3.84,2.545,6.141 c0,0.586-0.066,1.17-0.183,1.736c-0.335-1.636-1.153-3.17-2.362-4.371c-1.628-1.636-3.829-2.555-6.143-2.555h-44.619 c-2.313,0-4.507,0.919-6.133,2.555c-1.211,1.218-2.029,2.735-2.371,4.389c-0.117-0.567-0.176-1.151-0.176-1.754 c0-2.301,0.919-4.505,2.547-6.124c1.626-1.635,3.82-2.553,6.133-2.553H429.963z"/><rect width="69.097" height="69.095" x="501.729" y="299.318" fill="#34495E" fill-rule="evenodd" clip-rule="evenodd"/><rect width="57.762" height="57.763" x="507.396" y="304.975" fill="#22A6EF"/><path fill="#34495E" fill-rule="evenodd" d="M536.277,336.77c14.051,0,25.451,11.399,25.451,25.451 l-0.01,0.517h-50.885l-0.009-0.517C510.825,348.168,522.225,336.77,536.277,336.77" clip-rule="evenodd"/><path fill="#34495E" fill-rule="evenodd" d="M536.277,314.422c7.919,0,14.344,6.409,14.344,14.337 c0,7.927-6.425,14.353-14.344,14.353c-7.92,0-14.344-6.426-14.344-14.353C521.934,320.831,528.357,314.422,536.277,314.422" clip-rule="evenodd"/><path fill="#39D4FF" fill-rule="evenodd" d="M536.277,320.08c4.789,0,8.678,3.889,8.678,8.679 c0,4.789-3.889,8.678-8.678,8.678c-4.79,0-8.68-3.889-8.68-8.678C527.598,323.968,531.487,320.08,536.277,320.08" clip-rule="evenodd"/><path fill="#39D4FF" fill-rule="evenodd" d="M536.277,342.444c10.924,0,19.775,8.862,19.775,19.777v0.517 H516.5v-0.517C516.5,351.306,525.354,342.444,536.277,342.444" clip-rule="evenodd"/><path fill="#BCC2C6" fill-rule="evenodd" d="M504.7,415.161h63.154c2.169,0,3.938-1.769,3.938-3.939l0,0 c0-2.169-1.769-3.938-3.938-3.938H504.7c-2.17,0-3.94,1.77-3.94,3.938l0,0C500.76,413.393,502.53,415.161,504.7,415.161" clip-rule="evenodd"/><path fill="#BCC2C6" fill-rule="evenodd" d="M516.674,434.838h39.205c2.162,0,3.939-1.77,3.939-3.921l0,0 c0-2.172-1.777-3.94-3.939-3.94h-39.205c-2.16,0-3.938,1.769-3.938,3.94l0,0C512.736,433.068,514.514,434.838,516.674,434.838" clip-rule="evenodd"/><path fill="#BCC2C6" fill-rule="evenodd" d="M504.7,395.467h63.154c2.169,0,3.938-1.769,3.938-3.938 c0-2.152-1.769-3.922-3.938-3.922H504.7c-2.17,0-3.94,1.77-3.94,3.922C500.76,393.698,502.53,395.467,504.7,395.467" clip-rule="evenodd"/><path fill="#BCC2C6" d="M559.803,479.599h-44.622c-1.719,0-3.279,0.718-4.405,1.837c-1.135,1.135-1.846,2.699-1.846,4.418 c0,1.72,0.702,3.271,1.828,4.406h0.018c1.117,1.135,2.678,1.837,4.405,1.837h44.622c1.717,0,3.277-0.702,4.404-1.837 c1.135-1.135,1.844-2.703,1.844-4.406c0-1.719-0.709-3.283-1.836-4.418C563.08,480.316,561.52,479.599,559.803,479.599 M515.181,473.491h44.622c3.395,0,6.482,1.385,8.719,3.622l0.009,0.018c2.243,2.235,3.629,5.323,3.629,8.723 c0,3.405-1.386,6.492-3.629,8.729c-2.235,2.237-5.325,3.622-8.728,3.622h-44.622c-3.388,0-6.475-1.385-8.72-3.622l-0.008-0.018 h-0.008c-2.238-2.236-3.632-5.324-3.632-8.712c0-3.399,1.394-6.487,3.632-8.74C508.688,474.876,511.775,473.491,515.181,473.491z"/><path fill="#34495E" d="M512.753,468.435h44.628c3.388,0,6.475,1.401,8.713,3.638l0.017,0.016c2.235,2.237,3.621,5.326,3.621,8.712 c0,3.403-1.386,6.49-3.621,8.726c-2.246,2.236-5.333,3.622-8.729,3.622h-44.628c-3.388,0-6.476-1.386-8.722-3.622h-0.008v-0.016 c-2.244-2.237-3.63-5.325-3.63-8.71c0-3.402,1.386-6.49,3.63-8.728C506.261,469.836,509.348,468.435,512.753,468.435"/><path fill="#27CABF" d="M557.381,472.123c2.303,0,4.506,0.918,6.133,2.536c1.628,1.636,2.546,3.84,2.546,6.141 s-0.918,4.503-2.552,6.122c-1.629,1.637-3.824,2.555-6.127,2.555h-44.628c-2.304,0-4.506-0.901-6.135-2.537l-0.008-0.018 c-1.634-1.619-2.536-3.821-2.536-6.122s0.918-4.505,2.544-6.124c1.629-1.635,3.831-2.553,6.135-2.553H557.381z"/><path fill="#51F4E9" d="M557.381,472.123c2.303,0,4.506,0.918,6.133,2.536c1.628,1.636,2.546,3.84,2.546,6.141 c0,0.586-0.058,1.17-0.185,1.736c-0.332-1.636-1.15-3.17-2.361-4.371c-1.627-1.636-3.83-2.555-6.133-2.555h-44.628 c-2.304,0-4.506,0.919-6.135,2.555c-1.209,1.218-2.026,2.735-2.369,4.389c-0.116-0.567-0.175-1.151-0.175-1.754 c0-2.301,0.918-4.505,2.544-6.124c1.629-1.635,3.831-2.553,6.135-2.553H557.381z"/></g></svg>