<svg xmlns="http://www.w3.org/2000/svg" xmlns:svg="http://www.w3.org/2000/svg" id="Layer_1" width="800" height="800" x="0" y="0" enable-background="new 0 0 800 800" version="1.0" viewBox="0 0 800 800" xml:space="preserve"><metadata id="metadata2769"/><g id="g2706" transform="matrix(1.9038823,0,0,1.9038364,-374.18893,-351.8582)"><g id="g2704"><path id="path2662" fill="#bcc2c6" d="m 210.584,253.701 h 392.108 c 3.868,0 7.379,1.581 9.916,4.128 2.546,2.536 4.126,6.056 4.126,9.915 v 301.727 c 0,3.869 -1.58,7.379 -4.126,9.917 -2.537,2.545 -6.048,4.126 -9.916,4.126 H 210.584 c -3.868,0 -7.379,-1.581 -9.916,-4.126 -2.546,-2.538 -4.127,-6.048 -4.127,-9.917 V 267.744 c 0,-3.859 1.581,-7.379 4.127,-9.915 2.537,-2.548 6.048,-4.128 9.916,-4.128"/><path id="path2664" fill="#fff" fill-rule="evenodd" d="m 210.584,259.575 c -2.172,0 -4.234,0.866 -5.766,2.395 -1.539,1.548 -2.404,3.611 -2.404,5.773 V 569.47 c 0,2.172 0.865,4.244 2.404,5.773 1.531,1.531 3.594,2.404 5.766,2.404 h 392.108 c 2.171,0 4.234,-0.873 5.773,-2.404 1.53,-1.529 2.395,-3.594 2.395,-5.773 V 267.744 c 0,-2.179 -0.864,-4.225 -2.395,-5.773 -1.539,-1.529 -3.603,-2.395 -5.773,-2.395 H 210.584 Z" clip-rule="evenodd"/><path id="path2666" fill="#bcc2c6" fill-rule="evenodd" d="m 240.434,333.027 h 187.459 c 2.806,0 5.094,2.286 5.094,5.098 v 20.816 c 0,2.812 -2.288,5.1 -5.094,5.1 H 240.434 c -2.795,0 -5.083,-2.288 -5.083,-5.1 v -20.816 c 0,-2.812 2.288,-5.098 5.083,-5.098" clip-rule="evenodd"/><path id="path2668" fill="#bcc2c6" fill-rule="evenodd" d="m 240.434,390.106 h 187.459 c 2.806,0 5.094,2.295 5.094,5.091 v 20.832 c 0,2.805 -2.288,5.093 -5.094,5.093 H 240.434 c -2.795,0 -5.083,-2.288 -5.083,-5.093 v -20.832 c 0,-2.795 2.288,-5.091 5.083,-5.091" clip-rule="evenodd"/><path id="path2670" fill="#bcc2c6" fill-rule="evenodd" d="m 240.434,447.194 h 187.459 c 2.806,0 5.094,2.288 5.094,5.091 v 20.832 c 0,2.796 -2.288,5.084 -5.094,5.084 H 240.434 c -2.795,0 -5.083,-2.288 -5.083,-5.084 v -20.832 c 0,-2.803 2.288,-5.091 5.083,-5.091" clip-rule="evenodd"/><rect id="rect2672" width="186.852" height="19.268" x="240.742" y="453.066" fill="#fff" fill-rule="evenodd" clip-rule="evenodd"/><rect id="rect2674" width="186.852" height="19.268" x="240.742" y="395.979" fill="#fff" fill-rule="evenodd" clip-rule="evenodd"/><rect id="rect2676" width="186.852" height="19.275" x="240.742" y="338.892" fill="#fff" fill-rule="evenodd" clip-rule="evenodd"/><path id="path2678" fill="#bcc2c6" fill-rule="evenodd" d="m 240.434,501.285 h 187.459 c 2.806,0 5.094,2.298 5.094,5.093 v 20.831 c 0,2.795 -2.288,5.091 -5.094,5.091 H 240.434 c -2.795,0 -5.083,-2.296 -5.083,-5.091 v -20.831 c 0,-2.795 2.288,-5.093 5.083,-5.093" clip-rule="evenodd"/><rect id="rect2680" width="186.852" height="19.267" x="240.742" y="507.16" fill="#fff" fill-rule="evenodd" clip-rule="evenodd"/><path id="path2682" fill="#bcc2c6" fill-rule="evenodd" d="m 470.281,353.816 h 103.492 c 2.288,0 4.152,1.865 4.152,4.151 v 0.01 c 0,2.278 -1.864,4.143 -4.152,4.143 H 470.281 c -2.28,0 -4.151,-1.865 -4.151,-4.143 v -0.01 c 0,-2.286 1.871,-4.151 4.151,-4.151" clip-rule="evenodd"/><path id="path2684" fill="#bcc2c6" fill-rule="evenodd" d="m 470.281,374.698 h 103.492 c 2.288,0 4.152,1.863 4.152,4.158 v 0 c 0,2.288 -1.864,4.153 -4.152,4.153 H 470.281 c -2.28,0 -4.151,-1.865 -4.151,-4.153 v 0 c 0,-2.295 1.871,-4.158 4.151,-4.158" clip-rule="evenodd"/><path id="path2686" fill="#bcc2c6" fill-rule="evenodd" d="m 470.281,395.588 h 103.492 c 2.288,0 4.152,1.863 4.152,4.151 v 0 c 0,2.295 -1.864,4.161 -4.152,4.161 H 470.281 c -2.28,0 -4.151,-1.865 -4.151,-4.161 v 0 c 0,-2.288 1.871,-4.151 4.151,-4.151" clip-rule="evenodd"/><path id="path2688" fill="#bcc2c6" fill-rule="evenodd" d="m 470.281,416.479 h 103.492 c 2.288,0 4.152,1.863 4.152,4.151 v 0 c 0,2.288 -1.864,4.15 -4.152,4.15 H 470.281 c -2.28,0 -4.151,-1.862 -4.151,-4.15 v 0 c 0,-2.288 1.871,-4.151 4.151,-4.151" clip-rule="evenodd"/><path id="path2690" fill="#bcc2c6" fill-rule="evenodd" d="m 470.281,437.361 h 65.789 c 2.28,0 4.15,1.862 4.15,4.15 v 0.008 c 0,2.28 -1.87,4.151 -4.15,4.151 h -65.789 c -2.28,0 -4.151,-1.871 -4.151,-4.151 v -0.008 c 0,-2.287 1.871,-4.15 4.151,-4.15" clip-rule="evenodd"/><path id="path2692" fill="#bcc2c6" fill-rule="evenodd" d="m 470.281,333.027 h 65.789 c 2.28,0 4.15,1.87 4.15,4.151 v 0.007 c 0,2.288 -1.87,4.151 -4.15,4.151 h -65.789 c -2.28,0 -4.151,-1.863 -4.151,-4.151 v -0.007 c 0,-2.281 1.871,-4.151 4.151,-4.151" clip-rule="evenodd"/><path id="path2694" fill="#bcc2c6" d="m 545.63,509.356 h -58.719 c -2.254,0 -4.309,0.931 -5.798,2.412 -1.489,1.496 -2.422,3.544 -2.422,5.808 0,2.261 0.923,4.316 2.404,5.798 l 0.018,0.016 c 1.481,1.481 3.535,2.404 5.798,2.404 h 58.719 c 2.254,0 4.31,-0.931 5.799,-2.42 1.489,-1.489 2.412,-3.544 2.412,-5.798 0,-2.264 -0.923,-4.318 -2.405,-5.808 -1.489,-1.489 -3.544,-2.412 -5.806,-2.412 m -58.719,-8.044 h 58.719 c 4.466,0 8.527,1.829 11.471,4.767 l 0.018,0.025 c 2.945,2.943 4.767,7.005 4.767,11.473 0,4.475 -1.821,8.544 -4.767,11.48 -2.954,2.943 -7.013,4.774 -11.488,4.774 h -58.719 c -4.46,0 -8.519,-1.831 -11.473,-4.774 h -0.008 l -0.009,-0.01 c -2.944,-2.952 -4.774,-7.013 -4.774,-11.471 0,-4.478 1.83,-8.544 4.774,-11.498 2.945,-2.937 7.015,-4.766 11.489,-4.766 z"/><path id="path2696" fill="#34495e" d="m 483.716,494.663 h 58.719 c 4.468,0 8.526,1.83 11.473,4.776 l 0.017,0.018 c 2.944,2.943 4.775,7.003 4.775,11.471 0,4.477 -1.831,8.544 -4.775,11.489 -2.945,2.946 -7.015,4.774 -11.489,4.774 h -58.719 c -4.458,0 -8.518,-1.828 -11.471,-4.774 l -0.01,-0.008 -0.008,-0.009 c -2.945,-2.954 -4.767,-7.014 -4.767,-11.473 0,-4.476 1.821,-8.544 4.767,-11.488 2.946,-2.946 7.012,-4.776 11.488,-4.776"/><path id="path2698" fill="#27cabf" d="m 542.435,499.506 c 3.037,0 5.932,1.197 8.079,3.345 2.137,2.146 3.344,5.041 3.344,8.077 0,3.037 -1.207,5.924 -3.354,8.07 -2.146,2.138 -5.032,3.353 -8.069,3.353 h -58.719 c -3.028,0 -5.923,-1.197 -8.069,-3.337 l -0.008,-0.016 c -2.146,-2.146 -3.344,-5.041 -3.344,-8.07 0,-3.036 1.214,-5.923 3.352,-8.069 2.146,-2.138 5.033,-3.353 8.069,-3.353 z"/><path id="path2700" fill="#51f4e9" d="m 542.435,499.506 c 3.037,0 5.932,1.197 8.079,3.345 2.137,2.146 3.344,5.041 3.344,8.077 0,0.773 -0.084,1.548 -0.234,2.288 -0.448,-2.163 -1.521,-4.176 -3.109,-5.765 -2.147,-2.139 -5.042,-3.344 -8.079,-3.344 h -58.719 c -3.036,0 -5.923,1.205 -8.069,3.352 -1.588,1.598 -2.67,3.602 -3.119,5.773 -0.148,-0.749 -0.232,-1.521 -0.232,-2.305 0,-3.036 1.214,-5.923 3.352,-8.069 2.146,-2.138 5.033,-3.353 8.069,-3.353 h 58.717 z"/><path id="path2702" fill="#34495e" fill-rule="evenodd" d="m 239.269,293.484 h 189.799 c 2.155,0 3.919,1.764 3.919,3.928 v 0 c 0,2.162 -1.764,3.926 -3.919,3.926 H 239.269 c -2.154,0 -3.918,-1.764 -3.918,-3.926 v 0 c 0,-2.164 1.763,-3.928 3.918,-3.928" clip-rule="evenodd"/></g></g><g id="g2762"><g id="g2750"><path id="path2708" fill="#BCC2C6" d="M2670.724,298.331h198.637c2.28,0,4.354,0.929,5.854,2.429v0.013c1.5,1.5,2.434,3.566,2.434,5.842V483.23 c0,2.271-0.934,4.342-2.434,5.842v0.009c-1.5,1.504-3.574,2.433-5.854,2.433h-198.637c-2.284,0-4.354-0.929-5.854-2.433v-0.009 c-1.5-1.5-2.433-3.57-2.433-5.842V306.614c0-2.275,0.933-4.342,2.433-5.842v-0.013 C2666.369,299.259,2668.439,298.331,2670.724,298.331"/><path id="path2710" fill="#EBEFF0" d="M2874.64,306.614V483.23c0,3.324-2.317,5.279-5.279,5.279h-198.637c-2.957,0-5.279-1.9-5.279-5.279 V306.614c0-3.442,2.331-5.274,5.279-5.274h198.637C2872.317,301.339,2874.64,303.231,2874.64,306.614"/><path id="path2712" fill="#BCC2C6" d="M2669.629,322.592h200.826c1.982,0,3.78,0.81,5.08,2.114c1.304,1.299,2.113,3.102,2.113,5.078v154.537 c0,1.981-0.81,3.779-2.113,5.079c-1.3,1.304-3.098,2.113-5.08,2.113h-200.826c-1.978,0-3.779-0.81-5.079-2.113 c-1.304-1.3-2.113-3.098-2.113-5.079V329.785c0-1.977,0.81-3.779,2.113-5.078C2665.85,323.402,2667.651,322.592,2669.629,322.592"/><path id="path2714" fill="#FFF" fill-rule="evenodd" d="M2669.629,325.601c-1.112,0-2.169,0.443-2.957,1.227 c-0.784,0.793-1.231,1.85-1.231,2.957v154.537c0,1.112,0.447,2.174,1.231,2.957c0.788,0.784,1.845,1.231,2.957,1.231h200.826 c1.112,0,2.17-0.447,2.953-1.231c0.789-0.783,1.231-1.841,1.231-2.957V329.785c0-1.116-0.442-2.164-1.231-2.957 c-0.783-0.783-1.845-1.227-2.953-1.227H2669.629z" clip-rule="evenodd"/><path id="path2716" fill="#94A4A5" fill-rule="evenodd" d="M2844.608,308.536c2.114,0,3.831,1.718,3.831,3.831 s-1.713,3.826-3.831,3.826c-2.113,0-3.826-1.713-3.826-3.826S2842.495,308.536,2844.608,308.536 M2856.633,308.536 c2.113,0,3.826,1.718,3.826,3.831s-1.713,3.826-3.826,3.826s-3.83-1.713-3.83-3.826S2854.52,308.536,2856.633,308.536z M2832.589,308.536c2.113,0,3.826,1.718,3.826,3.831s-1.713,3.826-3.826,3.826c-2.114,0-3.831-1.713-3.831-3.826 S2830.475,308.536,2832.589,308.536z" clip-rule="evenodd"/><path id="path2718" fill="#34495E" fill-rule="evenodd" d="M2714.786,369.761l2.207,5.079l5.591,0.571 c1.615,0.162,2.131,1.841,0.941,2.889l-4.146,3.673l1.185,5.492c0.341,1.59-1.091,2.595-2.463,1.79l-4.769-2.809l-4.861,2.821 c-1.406,0.818-2.804-0.23-2.463-1.785l1.197-5.407l-4.185-3.75c-1.21-1.082-0.643-2.735,0.938-2.889l5.514-0.537l2.271-5.139 C2712.4,368.279,2714.151,368.304,2714.786,369.761" clip-rule="evenodd"/><polygon id="polygon2720" fill="#F29B12" fill-rule="evenodd" points="2713.257 372.037 2711.037 377.069 2705.655 377.588 2709.754 381.257 2708.582 386.537 2713.342 383.771 2717.999 386.515 2716.84 381.138 2720.888 377.554 2715.417 376.997" clip-rule="evenodd"/><path id="path2722" fill="#34495E" fill-rule="evenodd" d="M2743.168,369.761l2.207,5.079l5.591,0.571 c1.619,0.162,2.135,1.841,0.942,2.889l-4.143,3.673l1.181,5.492c0.341,1.59-1.091,2.595-2.458,1.79l-4.773-2.809l-4.857,2.821 c-1.405,0.818-2.808-0.23-2.463-1.785l1.198-5.407l-4.185-3.75c-1.215-1.082-0.647-2.735,0.938-2.889l5.51-0.537l2.271-5.139 C2740.782,368.279,2742.533,368.304,2743.168,369.761" clip-rule="evenodd"/><polygon id="polygon2724" fill="#F29B12" fill-rule="evenodd" points="2741.643 372.037 2739.419 377.069 2734.037 377.588 2738.137 381.257 2736.969 386.537 2741.724 383.771 2746.381 386.515 2745.227 381.138 2749.27 377.554 2743.799 376.997" clip-rule="evenodd"/><path id="path2726" fill="#34495E" fill-rule="evenodd" d="M2771.555,369.761l2.207,5.079l5.591,0.571 c1.614,0.162,2.135,1.841,0.941,2.889l-4.146,3.673l1.185,5.492c0.341,1.59-1.091,2.595-2.463,1.79l-4.769-2.809l-4.861,2.821 c-1.402,0.818-2.804-0.23-2.459-1.785l1.193-5.407l-4.185-3.75c-1.21-1.082-0.644-2.735,0.942-2.889l5.509-0.537l2.271-5.139 C2769.169,368.279,2770.92,368.304,2771.555,369.761" clip-rule="evenodd"/><polygon id="polygon2728" fill="#F29B12" fill-rule="evenodd" points="2770.029 372.037 2767.805 377.069 2762.424 377.588 2766.522 381.257 2765.351 386.537 2770.11 383.771 2774.768 386.515 2773.608 381.138 2777.656 377.554 2772.186 376.997" clip-rule="evenodd"/><path id="path2730" fill="#34495E" fill-rule="evenodd" d="M2799.938,369.761l2.211,5.079l5.59,0.571 c1.615,0.162,2.131,1.841,0.942,2.889l-4.146,3.673l1.181,5.492c0.346,1.59-1.091,2.595-2.459,1.79l-4.771-2.809l-4.857,2.821 c-1.406,0.818-2.809-0.23-2.463-1.785l1.197-5.407l-4.185-3.75c-1.21-1.082-0.647-2.735,0.938-2.889l5.509-0.537l2.271-5.139 C2797.551,368.279,2799.302,368.304,2799.938,369.761" clip-rule="evenodd"/><polygon id="polygon2732" fill="#F29B12" fill-rule="evenodd" points="2798.412 372.037 2796.188 377.069 2790.806 377.588 2794.904 381.257 2793.737 386.537 2798.492 383.771 2803.149 386.515 2801.995 381.138 2806.043 377.554 2800.567 376.997" clip-rule="evenodd"/><path id="path2734" fill="#34495E" fill-rule="evenodd" d="M2828.323,369.761l2.207,5.079l5.591,0.571 c1.615,0.162,2.131,1.841,0.941,2.889l-4.146,3.673l1.185,5.492c0.341,1.59-1.091,2.595-2.463,1.79l-4.769-2.809l-4.861,2.821 c-1.401,0.818-2.804-0.23-2.459-1.785l1.193-5.407l-4.185-3.75c-1.21-1.082-0.643-2.735,0.941-2.889l5.51-0.537l2.271-5.139 C2825.938,368.279,2827.688,368.304,2828.323,369.761" clip-rule="evenodd"/><polygon id="polygon2736" fill="#FFF" fill-rule="evenodd" points="2826.798 372.037 2824.574 377.069 2819.192 377.588 2823.291 381.257 2822.124 386.537 2826.879 383.771 2831.536 386.515 2830.377 381.138 2834.425 377.554 2828.954 376.997" clip-rule="evenodd"/><path id="path2738" fill="#BCC2C6" d="M2785.897,458.73h-30.074c-1.154,0-2.207,0.469-2.97,1.235c-0.763,0.763-1.24,1.815-1.24,2.97l0,0 c0,1.164,0.474,2.212,1.231,2.971l0.009,0.008c0.759,0.759,1.811,1.228,2.97,1.228h30.074c1.154,0,2.207-0.469,2.97-1.235 c0.763-0.763,1.235-1.815,1.235-2.971l0,0c0-1.158-0.469-2.211-1.231-2.974S2787.057,458.73,2785.897,458.73 M2755.823,454.605 h30.074c2.288,0,4.367,0.938,5.876,2.446l0.008,0.008c1.509,1.509,2.446,3.588,2.446,5.876l0,0c0,2.293-0.938,4.376-2.446,5.885 c-1.508,1.509-3.592,2.445-5.884,2.445h-30.074c-2.284,0-4.363-0.937-5.876-2.445l-0.004-0.004l-0.004-0.005 c-1.509-1.513-2.446-3.592-2.446-5.876l0,0c0-2.292,0.938-4.376,2.446-5.884C2751.447,455.543,2753.531,454.605,2755.823,454.605z"/><path id="path2740" fill="#34495E" d="M2754.188,451.205h30.073c2.288,0,4.368,0.938,5.876,2.442l0.009,0.008 c1.509,1.509,2.445,3.592,2.445,5.876l0,0c0,2.293-0.937,4.381-2.445,5.885c-1.509,1.508-3.592,2.445-5.885,2.445h-30.073 c-2.284,0-4.363-0.938-5.876-2.445l-0.005-0.005h-0.004c-1.508-1.517-2.441-3.596-2.441-5.88l0,0c0-2.292,0.934-4.371,2.441-5.884 C2749.812,452.143,2751.895,451.205,2754.188,451.205"/><path id="path2742" fill="#27CABF" d="M2784.261,453.681c1.556,0,3.038,0.618,4.138,1.718c1.1,1.095,1.713,2.582,1.713,4.133 c0,1.556-0.622,3.034-1.717,4.133c-1.1,1.1-2.578,1.722-4.134,1.722h-30.073c-1.551,0-3.034-0.613-4.129-1.713l-0.009-0.009 c-1.1-1.099-1.713-2.582-1.713-4.133s0.622-3.033,1.722-4.133c1.095-1.1,2.573-1.718,4.129-1.718H2784.261z"/><path id="path2744" fill="#51F4E9" d="M2784.261,453.681c1.556,0,3.038,0.618,4.138,1.718c1.1,1.095,1.713,2.582,1.713,4.133 c0,0.4-0.038,0.793-0.119,1.176c-0.23-1.107-0.78-2.139-1.594-2.957c-1.1-1.095-2.582-1.713-4.138-1.713h-30.073 c-1.556,0-3.034,0.622-4.129,1.718c-0.818,0.817-1.372,1.845-1.603,2.961c-0.076-0.388-0.119-0.784-0.119-1.185 c0-1.551,0.622-3.033,1.722-4.133c1.095-1.1,2.573-1.718,4.129-1.718H2784.261z"/><path id="path2746" fill="#BCC2C6" fill-rule="evenodd" d="M2708.216,427.311h123.652c1.104,0,2.007,0.907,2.007,2.011 c0,1.107-0.902,2.011-2.007,2.011h-123.652c-1.104,0-2.007-0.903-2.007-2.011C2706.209,428.218,2707.112,427.311,2708.216,427.311" clip-rule="evenodd"/><path id="path2748" fill="#BCC2C6" fill-rule="evenodd" d="M2740.135,437.413h59.814c1.104,0,2.012,0.907,2.012,2.011 s-0.907,2.007-2.012,2.007h-59.814c-1.107,0-2.012-0.903-2.012-2.007S2739.027,437.413,2740.135,437.413" clip-rule="evenodd"/></g><g id="g2760"><path id="path2752" fill="#94A4A5" d="M2760.852,315.158h-1.803l-2.339-2.685h-1.458v2.685h-1.517v-8.041c1.274,0,2.548,0.009,3.818,0.009 c1.896,0.009,2.897,1.274,2.897,2.663c0,1.104-0.508,2.211-2.033,2.526l2.434,2.74V315.158z M2755.252,308.536v2.569h2.302 c0.967,0,1.38-0.639,1.38-1.287c0-0.639-0.426-1.282-1.38-1.282H2755.252z"/><path id="path2754" fill="#94A4A5" d="M2768.329,313.645h-4.201l-0.687,1.513h-1.645l3.605-8.032h1.648l3.605,8.032h-1.654L2768.329,313.645z M2766.229,308.813l-1.491,3.417h2.982L2766.229,308.813z"/><path id="path2756" fill="#94A4A5" d="M2773.255,308.506h-2.548v-1.381c2.318,0,4.277,0,6.608,0v1.381h-2.548v6.651h-1.513V308.506z"/><path id="path2758" fill="#94A4A5" d="M2785.377,315.158h-6.012c0-2.672,0-5.356,0-8.032h6.012v1.466h-4.508v1.85h4.351v1.414h-4.351v1.811 h4.508V315.158z"/></g></g></svg>