<svg xmlns="http://www.w3.org/2000/svg" xmlns:xlink="http://www.w3.org/1999/xlink" id="Layer_1" width="800" height="800" x="0" y="0" enable-background="new 0 0 800 800" version="1.0" viewBox="206.325 207.445 421.039 377.942" xml:space="preserve"><g><path fill="#34495E" d="M220.397,254.919h392.896c3.877,0,7.394,1.576,9.938,4.126c2.551,2.543,4.133,6.069,4.133,9.946v302.341 c0,3.868-1.582,7.386-4.133,9.937c-2.544,2.551-6.061,4.117-9.938,4.117H220.397c-3.866,0-7.395-1.566-9.938-4.117 c-2.549-2.551-4.134-6.068-4.134-9.937V268.991c0-3.876,1.585-7.403,4.134-9.946C213.003,256.495,216.531,254.919,220.397,254.919"/><path fill="#FFF" fill-rule="evenodd" d="M220.397,260.796c-2.176,0-4.244,0.875-5.785,2.409 c-1.535,1.542-2.409,3.609-2.409,5.786v302.341c0,2.167,0.874,4.234,2.409,5.769c1.541,1.551,3.609,2.418,5.785,2.418h392.896 c2.175,0,4.244-0.867,5.777-2.418c1.542-1.534,2.41-3.602,2.41-5.769V268.991c0-2.185-0.868-4.244-2.41-5.786 c-1.533-1.542-3.608-2.409-5.777-2.409H220.397z" clip-rule="evenodd"/><rect width="69.023" height="69.023" x="260.827" y="291.739" fill="#34495E" fill-rule="evenodd" clip-rule="evenodd"/><rect width="57.699" height="57.703" x="266.489" y="297.4" fill="#22A6EF"/><path fill="#34495E" fill-rule="evenodd" d="M295.339,329.161c14.037,0,25.418,11.387,25.418,25.424 l-0.01,0.518h-50.824l-0.008-0.518C269.915,340.547,281.293,329.161,295.339,329.161" clip-rule="evenodd"/><path fill="#34495E" fill-rule="evenodd" d="M295.339,306.828c7.91,0,14.329,6.411,14.329,14.33 c0,7.912-6.419,14.331-14.329,14.331c-7.92,0-14.33-6.419-14.33-14.331C281.009,313.238,287.419,306.828,295.339,306.828" clip-rule="evenodd"/><path fill="#39D4FF" fill-rule="evenodd" d="M295.339,312.488c4.784,0,8.661,3.885,8.661,8.669 c0,4.786-3.877,8.67-8.661,8.67c-4.785,0-8.67-3.885-8.67-8.67C286.669,316.373,290.554,312.488,295.339,312.488" clip-rule="evenodd"/><path fill="#39D4FF" fill-rule="evenodd" d="M295.339,334.829c10.911,0,19.756,8.845,19.756,19.756 l-0.008,0.518h-39.505l-0.009-0.518C275.573,343.673,284.427,334.829,295.339,334.829" clip-rule="evenodd"/><path fill="#BCC2C6" fill-rule="evenodd" d="M268.08,404.702h54.511c2.166,0,3.926-1.767,3.926-3.927l0,0 c0-2.167-1.76-3.934-3.926-3.934H268.08c-2.16,0-3.927,1.767-3.927,3.934l0,0C264.153,402.936,265.92,404.702,268.08,404.702" clip-rule="evenodd"/><path fill="#BCC2C6" fill-rule="evenodd" d="M260.019,384.946h70.643c2.157,0,3.924-1.768,3.924-3.935l0,0 c0-2.159-1.767-3.926-3.924-3.926h-70.643c-2.168,0-3.936,1.768-3.936,3.926l0,0C256.083,383.178,257.851,384.946,260.019,384.946" clip-rule="evenodd"/><rect width="69.021" height="69.023" x="382.335" y="291.739" fill="#34495E" fill-rule="evenodd" clip-rule="evenodd"/><rect width="57.703" height="57.703" x="387.995" y="297.4" fill="#22A6EF"/><path fill="#34495E" fill-rule="evenodd" d="M416.846,329.161c14.038,0,25.416,11.387,25.416,25.424v0.518 H391.43l-0.009-0.518C391.421,340.547,402.808,329.161,416.846,329.161" clip-rule="evenodd"/><path fill="#34495E" fill-rule="evenodd" d="M416.846,306.828c7.911,0,14.329,6.411,14.329,14.33 c0,7.912-6.418,14.331-14.329,14.331s-14.329-6.419-14.329-14.331C402.517,313.238,408.935,306.828,416.846,306.828" clip-rule="evenodd"/><path fill="#39D4FF" fill-rule="evenodd" d="M416.846,312.488c4.784,0,8.671,3.885,8.671,8.669 c0,4.786-3.887,8.67-8.671,8.67s-8.669-3.885-8.669-8.67C408.177,316.373,412.062,312.488,416.846,312.488" clip-rule="evenodd"/><path fill="#39D4FF" fill-rule="evenodd" d="M416.846,334.829c10.913,0,19.757,8.845,19.757,19.756 l-0.01,0.518h-39.504v-0.518C397.089,343.673,405.933,334.829,416.846,334.829" clip-rule="evenodd"/><path fill="#BCC2C6" fill-rule="evenodd" d="M389.595,404.702h54.502c2.168,0,3.936-1.767,3.936-3.927l0,0 c0-2.167-1.768-3.934-3.936-3.934h-54.502c-2.166,0-3.934,1.767-3.934,3.934l0,0C385.661,402.936,387.429,404.702,389.595,404.702" clip-rule="evenodd"/><path fill="#BCC2C6" fill-rule="evenodd" d="M381.526,384.946h70.639c2.16,0,3.927-1.768,3.927-3.935l0,0 c0-2.159-1.767-3.926-3.927-3.926h-70.639c-2.16,0-3.927,1.768-3.927,3.926l0,0C377.6,383.178,379.366,384.946,381.526,384.946" clip-rule="evenodd"/><rect width="69.023" height="69.023" x="503.841" y="291.739" fill="#34495E" fill-rule="evenodd" clip-rule="evenodd"/><rect width="57.699" height="57.703" x="509.503" y="297.4" fill="#22A6EF"/><path fill="#34495E" fill-rule="evenodd" d="M538.353,329.161c14.037,0,25.426,11.387,25.426,25.424 l-0.008,0.518h-50.835l-0.008-0.518C512.928,340.547,524.315,329.161,538.353,329.161" clip-rule="evenodd"/><path fill="#34495E" fill-rule="evenodd" d="M538.353,306.828c7.91,0,14.33,6.411,14.33,14.33 c0,7.912-6.42,14.331-14.33,14.331s-14.33-6.419-14.33-14.331C524.022,313.238,530.442,306.828,538.353,306.828" clip-rule="evenodd"/><path fill="#39D4FF" fill-rule="evenodd" d="M538.353,312.488c4.785,0,8.67,3.885,8.67,8.669 c0,4.786-3.885,8.67-8.67,8.67s-8.67-3.885-8.67-8.67C529.683,316.373,533.567,312.488,538.353,312.488" clip-rule="evenodd"/><path fill="#39D4FF" fill-rule="evenodd" d="M538.353,334.829c10.912,0,19.757,8.845,19.757,19.756v0.518 h-39.514v-0.518C518.596,343.673,527.44,334.829,538.353,334.829" clip-rule="evenodd"/><path fill="#BCC2C6" fill-rule="evenodd" d="M511.103,404.702h54.502c2.166,0,3.934-1.767,3.934-3.927l0,0 c0-2.167-1.768-3.934-3.934-3.934h-54.502c-2.168,0-3.936,1.767-3.936,3.934l0,0C507.167,402.936,508.935,404.702,511.103,404.702" clip-rule="evenodd"/><path fill="#BCC2C6" fill-rule="evenodd" d="M503.032,384.946h70.643c2.155,0,3.924-1.768,3.924-3.935l0,0 c0-2.159-1.769-3.926-3.924-3.926h-70.643c-2.157,0-3.926,1.768-3.926,3.926l0,0C499.106,383.178,500.875,384.946,503.032,384.946" clip-rule="evenodd"/><rect width="69.023" height="69.021" x="260.827" y="435.604" fill="#34495E" fill-rule="evenodd" clip-rule="evenodd"/><rect width="57.699" height="57.703" x="266.489" y="441.264" fill="#22A6EF"/><path fill="#34495E" fill-rule="evenodd" d="M295.339,473.032c14.037,0,25.418,11.38,25.418,25.418 l-0.01,0.517h-50.824l-0.008-0.517C269.915,484.412,281.293,473.032,295.339,473.032" clip-rule="evenodd"/><path fill="#34495E" fill-rule="evenodd" d="M295.339,450.692c7.91,0,14.329,6.419,14.329,14.329 c0,7.912-6.419,14.33-14.329,14.33c-7.92,0-14.33-6.418-14.33-14.33C281.009,457.111,287.419,450.692,295.339,450.692" clip-rule="evenodd"/><path fill="#39D4FF" fill-rule="evenodd" d="M295.339,456.36c4.784,0,8.661,3.877,8.661,8.661 c0,4.794-3.877,8.671-8.661,8.671c-4.785,0-8.67-3.877-8.67-8.671C286.669,460.237,290.554,456.36,295.339,456.36" clip-rule="evenodd"/><path fill="#39D4FF" fill-rule="evenodd" d="M295.339,478.693c10.911,0,19.756,8.845,19.756,19.757 l-0.008,0.517h-39.505l-0.009-0.517C275.573,487.538,284.427,478.693,295.339,478.693" clip-rule="evenodd"/><path fill="#BCC2C6" fill-rule="evenodd" d="M268.08,548.575h54.511c2.166,0,3.926-1.769,3.926-3.936l0,0 c0-2.15-1.76-3.935-3.926-3.935H268.08c-2.16,0-3.927,1.784-3.927,3.935l0,0C264.153,546.807,265.92,548.575,268.08,548.575" clip-rule="evenodd"/><path fill="#BCC2C6" fill-rule="evenodd" d="M260.019,528.818h70.643c2.157,0,3.924-1.769,3.924-3.935 c0-2.167-1.767-3.936-3.924-3.936h-70.643c-2.168,0-3.936,1.769-3.936,3.936C256.083,527.05,257.851,528.818,260.019,528.818" clip-rule="evenodd"/><rect width="69.021" height="69.021" x="382.335" y="435.604" fill="#34495E" fill-rule="evenodd" clip-rule="evenodd"/><rect width="57.703" height="57.703" x="387.995" y="441.264" fill="#22A6EF"/><path fill="#34495E" fill-rule="evenodd" d="M416.846,473.032c14.038,0,25.416,11.38,25.416,25.418v0.517 H391.43l-0.009-0.517C391.421,484.412,402.808,473.032,416.846,473.032" clip-rule="evenodd"/><path fill="#34495E" fill-rule="evenodd" d="M416.846,450.692c7.911,0,14.329,6.419,14.329,14.329 c0,7.912-6.418,14.33-14.329,14.33s-14.329-6.418-14.329-14.33C402.517,457.111,408.935,450.692,416.846,450.692" clip-rule="evenodd"/><path fill="#39D4FF" fill-rule="evenodd" d="M416.846,456.36c4.784,0,8.671,3.877,8.671,8.661 c0,4.794-3.887,8.671-8.671,8.671s-8.669-3.877-8.669-8.671C408.177,460.237,412.062,456.36,416.846,456.36" clip-rule="evenodd"/><path fill="#39D4FF" fill-rule="evenodd" d="M416.846,478.693c10.913,0,19.757,8.845,19.757,19.757 l-0.01,0.517h-39.504v-0.517C397.089,487.538,405.933,478.693,416.846,478.693" clip-rule="evenodd"/><path fill="#BCC2C6" fill-rule="evenodd" d="M389.595,548.575h54.502c2.168,0,3.936-1.769,3.936-3.936l0,0 c0-2.15-1.768-3.935-3.936-3.935h-54.502c-2.166,0-3.934,1.784-3.934,3.935l0,0C385.661,546.807,387.429,548.575,389.595,548.575" clip-rule="evenodd"/><path fill="#BCC2C6" fill-rule="evenodd" d="M381.526,528.818h70.639c2.16,0,3.927-1.769,3.927-3.935 c0-2.167-1.767-3.936-3.927-3.936h-70.639c-2.16,0-3.927,1.769-3.927,3.936C377.6,527.05,379.366,528.818,381.526,528.818" clip-rule="evenodd"/><rect width="69.023" height="69.021" x="503.841" y="435.604" fill="#34495E" fill-rule="evenodd" clip-rule="evenodd"/><rect width="57.699" height="57.703" x="509.503" y="441.264" fill="#22A6EF"/><path fill="#34495E" fill-rule="evenodd" d="M538.353,473.032c14.037,0,25.426,11.38,25.426,25.418 l-0.008,0.517h-50.835l-0.008-0.517C512.928,484.412,524.315,473.032,538.353,473.032" clip-rule="evenodd"/><path fill="#34495E" fill-rule="evenodd" d="M538.353,450.692c7.91,0,14.33,6.419,14.33,14.329 c0,7.912-6.42,14.33-14.33,14.33s-14.33-6.418-14.33-14.33C524.022,457.111,530.442,450.692,538.353,450.692" clip-rule="evenodd"/><path fill="#39D4FF" fill-rule="evenodd" d="M538.353,456.36c4.785,0,8.67,3.877,8.67,8.661 c0,4.794-3.885,8.671-8.67,8.671s-8.67-3.877-8.67-8.671C529.683,460.237,533.567,456.36,538.353,456.36" clip-rule="evenodd"/><path fill="#39D4FF" fill-rule="evenodd" d="M538.353,478.693c10.912,0,19.757,8.845,19.757,19.757v0.517 h-39.514v-0.517C518.596,487.538,527.44,478.693,538.353,478.693" clip-rule="evenodd"/><path fill="#BCC2C6" fill-rule="evenodd" d="M511.103,548.575h54.502c2.166,0,3.934-1.769,3.934-3.936l0,0 c0-2.15-1.768-3.935-3.934-3.935h-54.502c-2.168,0-3.936,1.784-3.936,3.935l0,0C507.167,546.807,508.935,548.575,511.103,548.575" clip-rule="evenodd"/><path fill="#BCC2C6" fill-rule="evenodd" d="M503.032,528.818h70.643c2.155,0,3.924-1.769,3.924-3.935 c0-2.167-1.769-3.936-3.924-3.936h-70.643c-2.157,0-3.926,1.769-3.926,3.936C499.106,527.05,500.875,528.818,503.032,528.818" clip-rule="evenodd"/><path fill="#34495E" fill-rule="evenodd" d="M220.397,260.796c-2.176,0-4.244,0.875-5.785,2.409 c-1.535,1.542-2.409,3.609-2.409,5.786v302.341c0,2.167,0.874,4.234,2.409,5.769c1.541,1.551,3.609,2.418,5.785,2.418h392.896 c2.175,0,4.244-0.867,5.777-2.418c1.542-1.534,2.41-3.602,2.41-5.769V268.991c0-2.185-0.868-4.244-2.41-5.786 c-1.533-1.542-3.608-2.409-5.777-2.409H220.397z" clip-rule="evenodd" opacity=".5"/><path fill="#34495E" d="M295.696,318.257h242.299c2.391,0,4.56,0.976,6.127,2.542c1.574,1.576,2.55,3.743,2.55,6.136V513.38 c0,2.401-0.976,4.567-2.55,6.135c-1.567,1.568-3.736,2.552-6.127,2.552H295.696c-2.383,0-4.56-0.983-6.127-2.552 c-1.574-1.567-2.549-3.733-2.549-6.135V326.935c0-2.393,0.975-4.56,2.549-6.136C291.137,319.232,293.313,318.257,295.696,318.257"/><path fill="#FFF" fill-rule="evenodd" d="M295.696,324.134c-0.75,0-1.44,0.292-1.974,0.825 c-0.526,0.525-0.816,1.226-0.816,1.976V513.38c0,0.75,0.29,1.451,0.816,1.983c0.533,0.517,1.224,0.817,1.974,0.817h242.299 c0.74,0,1.441-0.301,1.969-0.817c0.53-0.532,0.822-1.233,0.822-1.983V326.935c0-0.75-0.292-1.451-0.822-1.976 c-0.527-0.534-1.229-0.825-1.969-0.825H295.696z" clip-rule="evenodd"/><path fill="#BCC2C6" d="M391.454,479.136H346.88c-1.717,0-3.275,0.708-4.4,1.833c-1.133,1.133-1.841,2.693-1.841,4.401 c0,1.726,0.699,3.285,1.824,4.409l0.017,0.01c1.117,1.125,2.676,1.824,4.4,1.824h44.574c1.718,0,3.276-0.708,4.401-1.834 c1.133-1.133,1.835-2.692,1.835-4.409c0-1.718-0.702-3.276-1.826-4.409C394.739,479.835,393.172,479.136,391.454,479.136 M346.88,473.025h44.574c3.393,0,6.476,1.391,8.712,3.625l0.015,0.009c2.236,2.242,3.619,5.327,3.619,8.711 c0,3.401-1.383,6.494-3.619,8.729c-2.24,2.234-5.324,3.625-8.727,3.625H346.88c-3.384,0-6.469-1.391-8.711-3.625l-0.008-0.009 l-0.008-0.009c-2.235-2.241-3.619-5.326-3.619-8.711c0-3.394,1.384-6.485,3.619-8.72 C340.396,474.416,343.479,473.025,346.88,473.025z"/><path fill="#34495E" d="M344.455,467.982h44.581c3.385,0,6.469,1.384,8.703,3.625l0.017,0.008c2.234,2.243,3.628,5.318,3.628,8.711 c0,3.403-1.394,6.486-3.628,8.721c-2.233,2.242-5.327,3.625-8.72,3.625h-44.581c-3.384,0-6.468-1.383-8.711-3.625h-0.007v-0.009 c-2.244-2.243-3.629-5.326-3.629-8.712c0-3.401,1.385-6.484,3.629-8.719C337.97,469.366,341.054,467.982,344.455,467.982"/><path fill="#27CABF" d="M389.036,471.658c2.303,0,4.502,0.908,6.127,2.533c1.627,1.634,2.543,3.835,2.543,6.135 c0,2.302-0.916,4.502-2.551,6.127c-1.625,1.625-3.816,2.544-6.119,2.544h-44.581c-2.3,0-4.501-0.901-6.127-2.534l-0.009-0.01 c-1.634-1.625-2.535-3.825-2.535-6.127c0-2.3,0.919-4.501,2.544-6.126c1.626-1.625,3.827-2.542,6.127-2.542H389.036z"/><path fill="#51F4E9" d="M389.036,471.658c2.303,0,4.502,0.908,6.127,2.533c1.627,1.634,2.543,3.835,2.543,6.135 c0,0.592-0.059,1.176-0.184,1.743c-0.333-1.65-1.15-3.168-2.359-4.377c-1.625-1.633-3.824-2.543-6.127-2.543h-44.581 c-2.3,0-4.501,0.918-6.127,2.543c-1.208,1.209-2.026,2.733-2.368,4.385c-0.115-0.566-0.176-1.159-0.176-1.751 c0-2.3,0.919-4.501,2.544-6.126c1.626-1.625,3.827-2.542,6.127-2.542H389.036z"/><path fill="#BCC2C6" d="M489.236,479.136h-44.581c-1.711,0-3.268,0.708-4.4,1.833c-1.134,1.133-1.836,2.693-1.836,4.401 c0,1.726,0.702,3.285,1.826,4.409l0.01,0.01c1.124,1.125,2.684,1.824,4.4,1.824h44.581c1.71,0,3.27-0.708,4.402-1.834 c1.133-1.133,1.833-2.692,1.833-4.409c0-1.718-0.7-3.276-1.825-4.409C492.513,479.835,490.952,479.136,489.236,479.136 M444.655,473.025h44.581c3.394,0,6.469,1.391,8.712,3.625l0.008,0.009c2.235,2.242,3.627,5.327,3.627,8.711 c0,3.401-1.392,6.494-3.627,8.729c-2.234,2.234-5.326,3.625-8.72,3.625h-44.581c-3.385,0-6.469-1.391-8.712-3.625v-0.009 l-0.007-0.009c-2.235-2.241-3.627-5.326-3.627-8.711c0-3.394,1.392-6.485,3.627-8.72 C438.169,474.416,441.253,473.025,444.655,473.025z"/><path fill="#34495E" d="M442.229,467.982h44.582c3.392,0,6.469,1.384,8.711,3.625l0.009,0.008c2.242,2.243,3.625,5.318,3.625,8.711 c0,3.403-1.383,6.486-3.625,8.721c-2.234,2.242-5.319,3.625-8.72,3.625h-44.582c-3.377,0-6.461-1.383-8.703-3.625h-0.008 l-0.009-0.009c-2.233-2.243-3.628-5.326-3.628-8.712c0-3.401,1.395-6.484,3.628-8.719 C435.751,469.366,438.837,467.982,442.229,467.982"/><path fill="#F65C4C" d="M486.812,471.658c2.3,0,4.5,0.908,6.133,2.533c1.627,1.634,2.537,3.835,2.537,6.135 c0,2.302-0.918,4.502-2.543,6.127c-1.627,1.625-3.827,2.544-6.127,2.544h-44.582c-2.301,0-4.493-0.901-6.119-2.534l-0.018-0.01 c-1.625-1.625-2.532-3.825-2.532-6.127c0-2.3,0.915-4.501,2.55-6.126c1.626-1.625,3.818-2.542,6.119-2.542H486.812z"/><path fill="#FF7C6C" d="M486.812,471.658c2.3,0,4.5,0.908,6.133,2.533c1.627,1.634,2.537,3.835,2.537,6.135 c0,0.592-0.059,1.176-0.176,1.743c-0.344-1.65-1.16-3.168-2.361-4.377c-1.633-1.633-3.833-2.543-6.133-2.543h-44.582 c-2.301,0-4.493,0.918-6.119,2.543c-1.217,1.209-2.027,2.733-2.367,4.385c-0.125-0.566-0.183-1.159-0.183-1.751 c0-2.3,0.915-4.501,2.55-6.126c1.626-1.625,3.818-2.542,6.119-2.542H486.812z"/><path fill="#FFF" fill-rule="evenodd" d="M580.642,280.735l6.228,6.219l6.218-6.219 c1.527-1.533,4.027-1.533,5.561,0l0,0c1.525,1.526,1.525,4.027,0,5.562l-6.218,6.218l6.218,6.227c1.525,1.526,1.525,4.026,0,5.552 v0.008c-1.533,1.526-4.033,1.526-5.561,0l-6.218-6.227l-6.228,6.227c-1.524,1.526-4.027,1.526-5.552,0v-0.008 c-1.534-1.525-1.534-4.026,0-5.552l6.218-6.227l-6.226-6.218c-1.526-1.535-1.526-4.035,0-5.562h0.008 C576.614,279.202,579.117,279.202,580.642,280.735" clip-rule="evenodd"/><path fill="#34495E" fill-rule="evenodd" d="M416.846,365.597c19.056,0,34.511,15.455,34.511,34.511 c0,19.057-15.455,34.512-34.511,34.512c-19.064,0-34.511-15.455-34.511-34.512C382.335,381.052,397.781,365.597,416.846,365.597" clip-rule="evenodd"/><path fill="#22A6EF" d="M416.846,371.258c15.931,0,28.853,12.921,28.853,28.851c0,15.931-12.922,28.853-28.853,28.853 s-28.851-12.922-28.851-28.853C387.995,384.179,400.915,371.258,416.846,371.258"/><path fill="#34495E" fill-rule="evenodd" d="M416.846,403.026c10.145,0,18.898,5.943,22.974,14.529 c-5.268,6.929-13.596,11.405-22.974,11.405s-17.706-4.477-22.974-11.405C397.948,408.97,406.7,403.026,416.846,403.026" clip-rule="evenodd"/><path fill="#34495E" fill-rule="evenodd" d="M416.846,380.686c7.911,0,14.329,6.418,14.329,14.329 c0,7.912-6.418,14.331-14.329,14.331s-14.329-6.419-14.329-14.331C402.517,387.104,408.935,380.686,416.846,380.686" clip-rule="evenodd"/><path fill="#39D4FF" fill-rule="evenodd" d="M416.846,386.354c4.784,0,8.671,3.876,8.671,8.661 s-3.887,8.67-8.671,8.67s-8.669-3.886-8.669-8.67S412.062,386.354,416.846,386.354" clip-rule="evenodd"/><path fill="#39D4FF" fill-rule="evenodd" d="M416.846,408.688c8.677,0,16.056,5.602,18.706,13.387 c-5.033,4.293-11.57,6.887-18.706,6.887c-7.144,0-13.673-2.594-18.706-6.887C400.79,414.289,408.159,408.688,416.846,408.688" clip-rule="evenodd"/></g></svg>