<svg xmlns="http://www.w3.org/2000/svg" xmlns:xlink="http://www.w3.org/1999/xlink" id="Layer_1" width="800" height="800" x="0" y="0" enable-background="new 0 0 800 800" version="1.0" viewBox="191.918 207.441 421.032 377.947" xml:space="preserve"><g><path fill="#BCC2C6" d="M205.989,254.916h392.898c3.877,0,7.395,1.575,9.936,4.126c2.552,2.542,4.127,6.069,4.127,9.945v302.328 c0,3.886-1.575,7.403-4.127,9.938c-2.541,2.552-6.059,4.134-9.936,4.134H205.989c-3.875,0-7.393-1.582-9.936-4.134 c-2.551-2.534-4.135-6.052-4.135-9.938V268.986c0-3.876,1.584-7.402,4.135-9.945C198.597,256.491,202.114,254.916,205.989,254.916"/><path fill="#FFF" fill-rule="evenodd" d="M205.989,260.792c-2.174,0-4.241,0.867-5.775,2.409 c-1.544,1.543-2.409,3.61-2.409,5.786v302.328c0,2.168,0.865,4.252,2.409,5.786c1.534,1.534,3.602,2.401,5.775,2.401h392.898 c2.176,0,4.243-0.867,5.776-2.401c1.542-1.534,2.409-3.602,2.409-5.786V268.986c0-2.184-0.867-4.243-2.409-5.786 c-1.533-1.542-3.601-2.409-5.776-2.409H205.989z" clip-rule="evenodd"/><path fill="#BCC2C6" fill-rule="evenodd" d="M334.558,321.637h112.613c2.158,0,3.925-1.767,3.925-3.926v-0.008 c0-2.159-1.767-3.927-3.925-3.927H334.558c-2.166,0-3.934,1.768-3.934,3.927v0.008C330.624,319.87,332.392,321.637,334.558,321.637" clip-rule="evenodd"/><path fill="#BCC2C6" fill-rule="evenodd" d="M334.558,341.301h71.975c2.167,0,3.926-1.766,3.926-3.926 c0-2.167-1.759-3.934-3.926-3.934h-71.975c-2.166,0-3.934,1.767-3.934,3.934C330.624,339.535,332.392,341.301,334.558,341.301" clip-rule="evenodd"/><path fill="#BCC2C6" d="M554.772,323.821h-44.573c-1.717,0-3.276,0.708-4.409,1.834c-1.126,1.134-1.834,2.692-1.834,4.409 c0,1.718,0.7,3.276,1.826,4.402l0.008,0.008c1.125,1.125,2.684,1.826,4.409,1.826h44.573c1.718,0,3.275-0.7,4.411-1.834 c1.123-1.134,1.832-2.692,1.832-4.402c0-1.717-0.709-3.284-1.832-4.409C558.058,324.529,556.49,323.821,554.772,323.821 M510.199,317.72h44.573c3.393,0,6.478,1.383,8.713,3.617l0.015,0.017c2.234,2.234,3.617,5.318,3.617,8.711 c0,3.402-1.383,6.486-3.617,8.72c-2.242,2.233-5.325,3.626-8.728,3.626h-44.573c-3.384,0-6.468-1.393-8.711-3.626l-0.009-0.008l0,0 c-2.242-2.243-3.627-5.327-3.627-8.712c0-3.401,1.385-6.485,3.627-8.728C503.714,319.103,506.798,317.72,510.199,317.72z"/><path fill="#34495E" d="M507.773,312.667h44.573c3.394,0,6.478,1.392,8.711,3.626l0.016,0.017c2.234,2.234,3.628,5.318,3.628,8.711 s-1.394,6.485-3.628,8.72c-2.231,2.234-5.326,3.618-8.727,3.618h-44.573c-3.384,0-6.468-1.383-8.712-3.618v-0.009h-0.007 c-2.234-2.251-3.628-5.327-3.628-8.711c0-3.401,1.394-6.486,3.628-8.728C501.288,314.06,504.372,312.667,507.773,312.667"/><path fill="#27CABF" d="M552.347,316.344c2.311,0,4.51,0.917,6.136,2.542c1.626,1.626,2.542,3.826,2.542,6.136 c0,2.3-0.926,4.493-2.551,6.118c-1.625,1.634-3.816,2.551-6.127,2.551h-44.573c-2.3,0-4.493-0.908-6.128-2.534l-0.008-0.017 c-1.625-1.625-2.533-3.818-2.533-6.118c0-2.31,0.916-4.501,2.541-6.127c1.635-1.634,3.818-2.55,6.128-2.55H552.347z"/><path fill="#51F4E9" d="M552.347,316.344c2.311,0,4.51,0.917,6.136,2.542c1.626,1.626,2.542,3.826,2.542,6.136 c0,0.583-0.059,1.167-0.176,1.742c-0.342-1.65-1.158-3.176-2.366-4.385c-1.626-1.625-3.825-2.542-6.136-2.542h-44.573 c-2.31,0-4.493,0.917-6.128,2.55c-1.208,1.208-2.024,2.734-2.366,4.376c-0.116-0.566-0.175-1.151-0.175-1.742 c0-2.31,0.916-4.501,2.541-6.127c1.635-1.634,3.818-2.55,6.128-2.55H552.347z"/><path fill="#BCC2C6" fill-rule="evenodd" d="M334.558,414.251h112.613c2.158,0,3.925-1.768,3.925-3.936l0,0 c0-2.158-1.767-3.925-3.925-3.925H334.558c-2.166,0-3.934,1.767-3.934,3.925l0,0C330.624,412.483,332.392,414.251,334.558,414.251" clip-rule="evenodd"/><path fill="#BCC2C6" fill-rule="evenodd" d="M334.558,433.92h71.975c2.167,0,3.926-1.768,3.926-3.938 c0-2.159-1.759-3.927-3.926-3.927h-71.975c-2.166,0-3.934,1.768-3.934,3.927C330.624,432.152,332.392,433.92,334.558,433.92" clip-rule="evenodd"/><path fill="#BCC2C6" d="M554.772,416.436h-44.573c-1.717,0-3.276,0.7-4.409,1.833c-1.126,1.133-1.834,2.693-1.834,4.402 c0,1.725,0.7,3.284,1.826,4.409l0.008,0.01c1.125,1.123,2.684,1.824,4.409,1.824h44.573c1.718,0,3.275-0.709,4.411-1.834 c1.123-1.134,1.832-2.693,1.832-4.409c0-1.719-0.709-3.276-1.832-4.409C558.058,417.136,556.49,416.436,554.772,416.436 M510.199,410.324h44.573c3.393,0,6.478,1.392,8.713,3.627l0.015,0.016c2.234,2.234,3.617,5.32,3.617,8.704 c0,3.4-1.383,6.486-3.617,8.732c-2.242,2.234-5.325,3.618-8.728,3.618h-44.573c-3.384,0-6.468-1.384-8.711-3.618l-0.009-0.018l0,0 c-2.242-2.246-3.627-5.331-3.627-8.715c0-3.394,1.385-6.485,3.627-8.72C503.714,411.716,506.798,410.324,510.199,410.324z"/><path fill="#34495E" d="M507.773,405.281h44.573c3.394,0,6.478,1.392,8.711,3.627l0.016,0.007c2.234,2.234,3.628,5.327,3.628,8.713 l0,0c0,3.4-1.394,6.484-3.628,8.718c-2.231,2.243-5.326,3.627-8.727,3.627h-44.573c-3.384,0-6.468-1.384-8.712-3.627l0,0 l-0.007-0.007c-2.234-2.243-3.628-5.326-3.628-8.711l0,0c0-3.394,1.394-6.485,3.628-8.72 C501.288,406.673,504.372,405.281,507.773,405.281"/><path fill="#F65C4C" d="M552.347,408.958c2.311,0,4.51,0.908,6.136,2.542c1.626,1.625,2.542,3.827,2.542,6.128 c0,2.309-0.926,4.5-2.551,6.126s-3.816,2.552-6.127,2.552h-44.573c-2.3,0-4.493-0.91-6.128-2.542l-0.008-0.01 c-1.625-1.626-2.533-3.826-2.533-6.126c0-2.301,0.916-4.495,2.541-6.128c1.635-1.625,3.818-2.542,6.128-2.542H552.347z"/><path fill="#FF7C6C" d="M552.347,408.958c2.311,0,4.51,0.908,6.136,2.542c1.626,1.625,2.542,3.827,2.542,6.128 c0,0.591-0.059,1.174-0.176,1.742c-0.342-1.644-1.158-3.169-2.366-4.378c-1.626-1.625-3.825-2.542-6.136-2.542h-44.573 c-2.31,0-4.493,0.917-6.128,2.542c-1.208,1.209-2.024,2.734-2.366,4.385c-0.116-0.566-0.175-1.158-0.175-1.749 c0-2.301,0.916-4.495,2.541-6.128c1.635-1.625,3.818-2.542,6.128-2.542H552.347z"/><path fill="#BCC2C6" fill-rule="evenodd" d="M334.558,506.86h112.613c2.158,0,3.925-1.767,3.925-3.934 c0-2.168-1.767-3.936-3.925-3.936H334.558c-2.166,0-3.934,1.768-3.934,3.936C330.624,505.094,332.392,506.86,334.558,506.86" clip-rule="evenodd"/><path fill="#BCC2C6" fill-rule="evenodd" d="M334.558,526.518h71.975c2.167,0,3.926-1.767,3.926-3.918l0,0 c0-2.168-1.759-3.936-3.926-3.936h-71.975c-2.166,0-3.934,1.768-3.934,3.936l0,0C330.624,524.751,332.392,526.518,334.558,526.518" clip-rule="evenodd"/><path fill="#BCC2C6" d="M554.772,509.044h-44.573c-1.717,0-3.276,0.701-4.409,1.834c-1.126,1.135-1.834,2.702-1.834,4.402 c0,1.734,0.7,3.285,1.826,4.401l0.008,0.017c1.125,1.133,2.684,1.816,4.409,1.816h44.573c1.718,0,3.275-0.699,4.411-1.833 c1.123-1.116,1.832-2.684,1.832-4.401c0-1.717-0.709-3.268-1.832-4.402C558.058,509.745,556.49,509.044,554.772,509.044 M510.199,502.942h44.573c3.393,0,6.478,1.385,8.713,3.618l0.015,0.018c2.234,2.232,3.617,5.317,3.617,8.702 c0,3.4-1.383,6.485-3.617,8.72c-2.242,2.251-5.325,3.635-8.728,3.635h-44.573c-3.384,0-6.468-1.384-8.711-3.635h-0.009l0,0 c-2.242-2.251-3.627-5.336-3.627-8.72c0-3.401,1.385-6.486,3.627-8.72C503.714,504.327,506.798,502.942,510.199,502.942z"/><path fill="#34495E" d="M507.773,497.891h44.573c3.394,0,6.478,1.384,8.711,3.636h0.016c2.234,2.234,3.628,5.317,3.628,8.718l0,0 c0,3.387-1.394,6.486-3.628,8.721c-2.231,2.234-5.326,3.618-8.727,3.618h-44.573c-3.384,0-6.468-1.384-8.712-3.618v-0.017h-0.007 c-2.234-2.234-3.628-5.317-3.628-8.704l0,0c0-3.4,1.394-6.483,3.628-8.718C501.288,499.274,504.372,497.891,507.773,497.891"/><path fill="#27CABF" d="M552.347,501.56c2.311,0,4.51,0.915,6.136,2.55c1.626,1.618,2.542,3.836,2.542,6.135 c0,2.302-0.926,4.486-2.551,6.12c-1.625,1.633-3.816,2.551-6.127,2.551h-44.573c-2.3,0-4.493-0.918-6.128-2.533l-0.008-0.018 c-1.625-1.617-2.533-3.818-2.533-6.12c0-2.316,0.916-4.5,2.541-6.135c1.635-1.617,3.818-2.55,6.128-2.55H552.347z"/><path fill="#51F4E9" d="M552.347,501.56c2.311,0,4.51,0.915,6.136,2.55c1.626,1.618,2.542,3.836,2.542,6.135 c0,0.585-0.059,1.169-0.176,1.735c-0.342-1.651-1.158-3.169-2.366-4.386c-1.626-1.617-3.825-2.533-6.136-2.533h-44.573 c-2.31,0-4.493,0.916-6.128,2.55c-1.208,1.2-2.024,2.734-2.366,4.385c-0.116-0.582-0.175-1.166-0.175-1.751 c0-2.316,0.916-4.5,2.541-6.135c1.635-1.617,3.818-2.55,6.128-2.55H552.347z"/><path fill="#34495E" fill-rule="evenodd" d="M272.271,293.028c19.057,0,34.504,15.455,34.504,34.511 s-15.447,34.511-34.504,34.511c-19.064,0-34.512-15.455-34.512-34.511S253.206,293.028,272.271,293.028" clip-rule="evenodd"/><path fill="#22A6EF" d="M272.271,298.688c15.931,0,28.853,12.921,28.853,28.851s-12.922,28.852-28.853,28.852 c-15.938,0-28.859-12.921-28.859-28.852S256.333,298.688,272.271,298.688"/><path fill="#34495E" fill-rule="evenodd" d="M272.271,330.457c10.137,0,18.89,5.943,22.974,14.53 c-5.268,6.927-13.604,11.404-22.974,11.404c-9.378,0-17.706-4.477-22.983-11.404C253.373,336.4,262.126,330.457,272.271,330.457" clip-rule="evenodd"/><path fill="#34495E" fill-rule="evenodd" d="M272.271,308.125c7.912,0,14.321,6.411,14.321,14.321 c0,7.912-6.409,14.33-14.321,14.33c-7.918,0-14.33-6.418-14.33-14.33C257.94,314.535,264.353,308.125,272.271,308.125" clip-rule="evenodd"/><path fill="#39D4FF" fill-rule="evenodd" d="M272.271,313.785c4.785,0,8.66,3.876,8.66,8.661 c0,4.793-3.875,8.67-8.66,8.67c-4.784,0-8.668-3.876-8.668-8.67C263.603,317.661,267.486,313.785,272.271,313.785" clip-rule="evenodd"/><path fill="#39D4FF" fill-rule="evenodd" d="M272.271,336.117c8.678,0,16.056,5.602,18.707,13.379 c-5.035,4.302-11.571,6.895-18.707,6.895c-7.144,0-13.67-2.593-18.715-6.895C256.208,341.718,263.585,336.117,272.271,336.117" clip-rule="evenodd"/><path fill="#34495E" fill-rule="evenodd" d="M272.271,385.641c19.057,0,34.504,15.447,34.504,34.511 c0,19.054-15.447,34.508-34.504,34.508c-19.064,0-34.512-15.454-34.512-34.508C237.759,401.088,253.206,385.641,272.271,385.641" clip-rule="evenodd"/><path fill="#22A6EF" d="M272.271,391.302c15.931,0,28.853,12.912,28.853,28.851c0,15.935-12.922,28.857-28.853,28.857 c-15.938,0-28.859-12.923-28.859-28.857C243.411,404.214,256.333,391.302,272.271,391.302"/><path fill="#34495E" fill-rule="evenodd" d="M272.271,423.069c10.137,0,18.89,5.938,22.974,14.535 c-5.268,6.919-13.604,11.405-22.974,11.405c-9.378,0-17.706-4.486-22.983-11.405C253.373,429.007,262.126,423.069,272.271,423.069" clip-rule="evenodd"/><path fill="#34495E" fill-rule="evenodd" d="M272.271,400.729c7.912,0,14.321,6.419,14.321,14.33 c0,7.91-6.409,14.329-14.321,14.329c-7.918,0-14.33-6.419-14.33-14.329C257.94,407.148,264.353,400.729,272.271,400.729" clip-rule="evenodd"/><path fill="#39D4FF" fill-rule="evenodd" d="M272.271,406.391c4.785,0,8.66,3.884,8.66,8.669 c0,4.784-3.875,8.67-8.66,8.67c-4.784,0-8.668-3.886-8.668-8.67C263.603,410.274,267.486,406.391,272.271,406.391" clip-rule="evenodd"/><path fill="#39D4FF" fill-rule="evenodd" d="M272.271,428.73c8.678,0,16.056,5.591,18.707,13.375 c-5.035,4.302-11.571,6.904-18.707,6.904c-7.144,0-13.67-2.603-18.715-6.904C256.208,434.321,263.585,428.73,272.271,428.73" clip-rule="evenodd"/><path fill="#34495E" fill-rule="evenodd" d="M272.271,478.251c19.057,0,34.504,15.455,34.504,34.513 c0,19.056-15.447,34.511-34.504,34.511c-19.064,0-34.512-15.455-34.512-34.511C237.759,493.706,253.206,478.251,272.271,478.251" clip-rule="evenodd"/><path fill="#22A6EF" d="M272.271,483.903c15.931,0,28.853,12.922,28.853,28.86c0,15.938-12.922,28.843-28.853,28.843 c-15.938,0-28.859-12.905-28.859-28.843C243.411,496.825,256.333,483.903,272.271,483.903"/><path fill="#34495E" fill-rule="evenodd" d="M272.271,515.681c10.137,0,18.89,5.935,22.974,14.538 c-5.268,6.918-13.604,11.388-22.974,11.388c-9.378,0-17.706-4.47-22.983-11.388C253.373,521.615,262.126,515.681,272.271,515.681" clip-rule="evenodd"/><path fill="#34495E" fill-rule="evenodd" d="M272.271,493.339c7.912,0,14.321,6.419,14.321,14.339 c0,7.903-6.409,14.322-14.321,14.322c-7.918,0-14.33-6.419-14.33-14.322C257.94,499.758,264.353,493.339,272.271,493.339" clip-rule="evenodd"/><path fill="#39D4FF" fill-rule="evenodd" d="M272.271,499.008c4.785,0,8.66,3.869,8.66,8.67 c0,4.784-3.875,8.653-8.66,8.653c-4.784,0-8.668-3.869-8.668-8.653C263.603,502.877,267.486,499.008,272.271,499.008" clip-rule="evenodd"/><path fill="#39D4FF" fill-rule="evenodd" d="M272.271,521.333c8.678,0,16.056,5.603,18.707,13.388 c-5.035,4.301-11.571,6.886-18.707,6.886c-7.144,0-13.67-2.585-18.715-6.886C256.208,526.936,263.585,521.333,272.271,521.333" clip-rule="evenodd"/></g></svg>